<svg width="34" height="34" viewBox="0 0 34 34" fill="none" xmlns="http://www.w3.org/2000/svg">
<path fill-rule="evenodd" clip-rule="evenodd" d="M25.01 22.9863L31.2747 17.5053C31.7699 17.0721 31.82 16.3195 31.3868 15.8243C31.352 15.7845 31.3145 15.747 31.2747 15.7122L24.9717 10.1976C24.4984 9.78351 23.7848 9.80863 23.3418 10.255L23.3357 10.2611C22.9187 10.6812 22.9213 11.3599 23.3414 11.7769C23.3542 11.7896 23.3672 11.8019 23.3807 11.814L27.3976 15.4174H11.4327C10.7747 15.4174 10.2414 15.9508 10.2414 16.6087C10.2414 17.2667 10.7747 17.8 11.4327 17.8H27.3976L23.4345 21.2335C22.9527 21.6509 22.9004 22.3799 23.3178 22.8617C23.3237 22.8684 23.3296 22.8751 23.3357 22.8817L23.3436 22.8905C23.7801 23.3713 24.5213 23.4139 25.01 22.9863ZM20.9672 8.27474C20.309 8.27474 19.7755 7.74117 19.7755 7.08298V4.70087H6.66563C6.0077 4.70087 5.47434 5.23423 5.47434 5.89216V27.3353C5.47434 27.9933 6.0077 28.5266 6.66563 28.5266H19.7755V26.1445C19.7755 25.4863 20.309 24.9528 20.9672 24.9528C21.6254 24.9528 22.159 25.4863 22.159 26.1445V28.5266C22.1514 29.7179 20.9602 30.9092 19.7755 30.9092H5.47434C4.28258 30.9092 3.09082 29.7179 3.09082 28.5266V4.70087C3.09082 3.50959 4.28258 2.3183 5.47434 2.3183H19.7688C20.9601 2.3183 22.1514 3.5342 22.1514 4.70087L22.1564 7.08298C22.1578 7.73978 21.6265 8.27335 20.9697 8.27474H20.9672Z" fill="black"/>
</svg>
