<svg width="20" height="20" viewBox="0 0 20 20" fill="none" xmlns="http://www.w3.org/2000/svg">
<mask id="path-1-inside-1_46_130932" fill="white">
<path d="M5.84012 2.27297C5.68187 2.27223 5.52955 2.33463 5.41809 2.44679C5.3059 2.55896 5.24274 2.71124 5.24348 2.86947V3.46151H4.05468C3.07689 3.46151 2.27295 4.27045 2.27295 5.24801V15.9425C2.27295 16.92 3.07763 17.7275 4.05468 17.7275H15.945C16.9228 17.7275 17.7268 16.92 17.7268 15.9425L17.7275 5.24801C17.7275 4.27045 16.9228 3.46151 15.9458 3.46151H14.757V2.86947H14.7562C14.757 2.71125 14.6945 2.55897 14.5824 2.44679C14.4702 2.33537 14.3179 2.27223 14.1596 2.27297C14.0021 2.27371 13.8512 2.33685 13.7398 2.44902C13.6291 2.56045 13.5674 2.71198 13.5674 2.86946V3.46149H11.9826V2.86946H11.9833C11.9833 2.71123 11.9209 2.55896 11.8087 2.44678C11.6965 2.33535 11.545 2.27221 11.3859 2.27296C11.2284 2.2737 11.0776 2.33684 10.9669 2.44901C10.8554 2.56043 10.7938 2.71197 10.7945 2.86944V3.46148H9.20671V2.86944H9.20597C9.20671 2.71196 9.1443 2.56042 9.03359 2.44901C8.92288 2.33684 8.77131 2.2737 8.6138 2.27296C8.45554 2.27221 8.30323 2.33535 8.19102 2.44678C8.07957 2.55894 8.01642 2.71122 8.01716 2.86946V3.46149H6.43234V2.86946C6.43308 2.71198 6.37141 2.56044 6.25996 2.44902C6.14925 2.33685 5.99838 2.27371 5.84012 2.27297ZM4.05469 4.65155H5.2435V5.24804C5.24424 5.40552 5.30739 5.55631 5.41959 5.66773C5.53104 5.77841 5.68261 5.84081 5.84012 5.84007C6.16705 5.83858 6.43156 5.57414 6.4323 5.24803V4.65154H8.01712V5.24803C8.01786 5.40551 8.08102 5.5563 8.19321 5.66772C8.30466 5.7784 8.45623 5.8408 8.61375 5.84006C8.94068 5.83857 9.20444 5.57413 9.20592 5.24802V4.65153H10.7937L10.7945 5.24802C10.7952 5.57411 11.0597 5.83857 11.3859 5.84006C11.5442 5.8408 11.695 5.7784 11.8072 5.66772C11.9194 5.5563 11.9825 5.4055 11.9833 5.24803V4.65154H13.5681L13.5674 5.24803C13.5688 5.57412 13.8333 5.83858 14.1595 5.84007C14.3171 5.84081 14.4686 5.77841 14.5808 5.66773C14.6923 5.5563 14.7562 5.40551 14.7562 5.24804V4.65155H15.945C16.2845 4.65155 16.5371 4.90857 16.5371 5.24804V7.62509H3.46179V5.24804C3.46179 4.90855 3.71513 4.65155 4.05469 4.65155ZM3.46177 8.81368H16.5371V15.9426C16.5371 16.282 16.2845 16.5391 15.9449 16.5391H4.05459C3.71503 16.5391 3.46167 16.282 3.46167 15.9426L3.46177 8.81368ZM5.8409 10.595H5.84016C5.68265 10.5942 5.53107 10.6559 5.41963 10.7673C5.30744 10.878 5.24428 11.0288 5.24354 11.187C5.24279 11.3452 5.30595 11.4975 5.41814 11.609C5.52959 11.7211 5.68191 11.7843 5.84018 11.7835H7.02899C7.18724 11.7828 7.33808 11.7196 7.44878 11.6075C7.56023 11.496 7.6219 11.3445 7.62115 11.187C7.62041 10.8602 7.35591 10.5957 7.02898 10.595L5.8409 10.595ZM9.40885 10.595H9.4081C9.07969 10.5935 8.81296 10.8587 8.81147 11.187C8.81073 11.3452 8.87314 11.4975 8.98534 11.609C9.09753 11.7211 9.24984 11.7843 9.40811 11.7835H10.5925C10.7507 11.7843 10.903 11.7211 11.0145 11.609C11.1267 11.4975 11.1899 11.3453 11.1891 11.187C11.1884 11.0288 11.1252 10.878 11.013 10.7673C10.9016 10.6559 10.75 10.5943 10.5925 10.595L9.40885 10.595ZM12.9715 10.595H12.9707C12.6438 10.5957 12.3793 10.8602 12.3778 11.187C12.3771 11.3445 12.4395 11.496 12.5502 11.6082C12.6616 11.7196 12.8132 11.7828 12.9707 11.7835H14.1595C14.3178 11.7843 14.4701 11.7211 14.5823 11.6089C14.6945 11.4975 14.7569 11.3452 14.7562 11.187C14.7562 11.0288 14.6923 10.878 14.5808 10.7673C14.4686 10.6559 14.317 10.5942 14.1595 10.595L12.9715 10.595ZM5.8409 13.5648H5.84016C5.6819 13.564 5.52959 13.6272 5.41813 13.7386C5.30593 13.8508 5.24278 14.003 5.24352 14.1613C5.24426 14.3188 5.30742 14.4703 5.41961 14.581C5.53106 14.6924 5.68263 14.7541 5.84014 14.7533H7.02895C7.35588 14.7518 7.62039 14.4881 7.62113 14.1613C7.62187 14.0038 7.5602 13.8523 7.44875 13.7408C7.33804 13.6287 7.18721 13.5655 7.02896 13.5648L5.8409 13.5648ZM9.40885 13.5648H9.4081C9.24984 13.564 9.09753 13.6272 8.98533 13.7393C8.87313 13.8508 8.81072 14.0031 8.81146 14.1613C8.81295 14.4896 9.0797 14.7548 9.40809 14.7533H10.5924C10.75 14.7541 10.9015 14.6924 11.013 14.581C11.1252 14.4703 11.1883 14.3188 11.1891 14.1613C11.1898 14.0031 11.1267 13.8508 11.0145 13.7386C10.903 13.6272 10.7507 13.5641 10.5924 13.5648L9.40885 13.5648ZM12.9715 13.5648H12.9707C12.8132 13.5655 12.6616 13.6287 12.5502 13.7401C12.4395 13.8523 12.3771 14.0038 12.3778 14.1613C12.3793 14.4881 12.6438 14.7526 12.9707 14.7533H14.1595C14.3171 14.754 14.4686 14.6924 14.5808 14.581C14.6923 14.4703 14.7562 14.3188 14.7562 14.1613C14.7569 14.0031 14.6945 13.8508 14.5823 13.7386C14.4701 13.6272 14.3178 13.564 14.1595 13.5648L12.9715 13.5648Z"/>
</mask>
<path d="M5.84012 2.27297C5.68187 2.27223 5.52955 2.33463 5.41809 2.44679C5.3059 2.55896 5.24274 2.71124 5.24348 2.86947V3.46151H4.05468C3.07689 3.46151 2.27295 4.27045 2.27295 5.24801V15.9425C2.27295 16.92 3.07763 17.7275 4.05468 17.7275H15.945C16.9228 17.7275 17.7268 16.92 17.7268 15.9425L17.7275 5.24801C17.7275 4.27045 16.9228 3.46151 15.9458 3.46151H14.757V2.86947H14.7562C14.757 2.71125 14.6945 2.55897 14.5824 2.44679C14.4702 2.33537 14.3179 2.27223 14.1596 2.27297C14.0021 2.27371 13.8512 2.33685 13.7398 2.44902C13.6291 2.56045 13.5674 2.71198 13.5674 2.86946V3.46149H11.9826V2.86946H11.9833C11.9833 2.71123 11.9209 2.55896 11.8087 2.44678C11.6965 2.33535 11.545 2.27221 11.3859 2.27296C11.2284 2.2737 11.0776 2.33684 10.9669 2.44901C10.8554 2.56043 10.7938 2.71197 10.7945 2.86944V3.46148H9.20671V2.86944H9.20597C9.20671 2.71196 9.1443 2.56042 9.03359 2.44901C8.92288 2.33684 8.77131 2.2737 8.6138 2.27296C8.45554 2.27221 8.30323 2.33535 8.19102 2.44678C8.07957 2.55894 8.01642 2.71122 8.01716 2.86946V3.46149H6.43234V2.86946C6.43308 2.71198 6.37141 2.56044 6.25996 2.44902C6.14925 2.33685 5.99838 2.27371 5.84012 2.27297ZM4.05469 4.65155H5.2435V5.24804C5.24424 5.40552 5.30739 5.55631 5.41959 5.66773C5.53104 5.77841 5.68261 5.84081 5.84012 5.84007C6.16705 5.83858 6.43156 5.57414 6.4323 5.24803V4.65154H8.01712V5.24803C8.01786 5.40551 8.08102 5.5563 8.19321 5.66772C8.30466 5.7784 8.45623 5.8408 8.61375 5.84006C8.94068 5.83857 9.20444 5.57413 9.20592 5.24802V4.65153H10.7937L10.7945 5.24802C10.7952 5.57411 11.0597 5.83857 11.3859 5.84006C11.5442 5.8408 11.695 5.7784 11.8072 5.66772C11.9194 5.5563 11.9825 5.4055 11.9833 5.24803V4.65154H13.5681L13.5674 5.24803C13.5688 5.57412 13.8333 5.83858 14.1595 5.84007C14.3171 5.84081 14.4686 5.77841 14.5808 5.66773C14.6923 5.5563 14.7562 5.40551 14.7562 5.24804V4.65155H15.945C16.2845 4.65155 16.5371 4.90857 16.5371 5.24804V7.62509H3.46179V5.24804C3.46179 4.90855 3.71513 4.65155 4.05469 4.65155ZM3.46177 8.81368H16.5371V15.9426C16.5371 16.282 16.2845 16.5391 15.9449 16.5391H4.05459C3.71503 16.5391 3.46167 16.282 3.46167 15.9426L3.46177 8.81368ZM5.8409 10.595H5.84016C5.68265 10.5942 5.53107 10.6559 5.41963 10.7673C5.30744 10.878 5.24428 11.0288 5.24354 11.187C5.24279 11.3452 5.30595 11.4975 5.41814 11.609C5.52959 11.7211 5.68191 11.7843 5.84018 11.7835H7.02899C7.18724 11.7828 7.33808 11.7196 7.44878 11.6075C7.56023 11.496 7.6219 11.3445 7.62115 11.187C7.62041 10.8602 7.35591 10.5957 7.02898 10.595L5.8409 10.595ZM9.40885 10.595H9.4081C9.07969 10.5935 8.81296 10.8587 8.81147 11.187C8.81073 11.3452 8.87314 11.4975 8.98534 11.609C9.09753 11.7211 9.24984 11.7843 9.40811 11.7835H10.5925C10.7507 11.7843 10.903 11.7211 11.0145 11.609C11.1267 11.4975 11.1899 11.3453 11.1891 11.187C11.1884 11.0288 11.1252 10.878 11.013 10.7673C10.9016 10.6559 10.75 10.5943 10.5925 10.595L9.40885 10.595ZM12.9715 10.595H12.9707C12.6438 10.5957 12.3793 10.8602 12.3778 11.187C12.3771 11.3445 12.4395 11.496 12.5502 11.6082C12.6616 11.7196 12.8132 11.7828 12.9707 11.7835H14.1595C14.3178 11.7843 14.4701 11.7211 14.5823 11.6089C14.6945 11.4975 14.7569 11.3452 14.7562 11.187C14.7562 11.0288 14.6923 10.878 14.5808 10.7673C14.4686 10.6559 14.317 10.5942 14.1595 10.595L12.9715 10.595ZM5.8409 13.5648H5.84016C5.6819 13.564 5.52959 13.6272 5.41813 13.7386C5.30593 13.8508 5.24278 14.003 5.24352 14.1613C5.24426 14.3188 5.30742 14.4703 5.41961 14.581C5.53106 14.6924 5.68263 14.7541 5.84014 14.7533H7.02895C7.35588 14.7518 7.62039 14.4881 7.62113 14.1613C7.62187 14.0038 7.5602 13.8523 7.44875 13.7408C7.33804 13.6287 7.18721 13.5655 7.02896 13.5648L5.8409 13.5648ZM9.40885 13.5648H9.4081C9.24984 13.564 9.09753 13.6272 8.98533 13.7393C8.87313 13.8508 8.81072 14.0031 8.81146 14.1613C8.81295 14.4896 9.0797 14.7548 9.40809 14.7533H10.5924C10.75 14.7541 10.9015 14.6924 11.013 14.581C11.1252 14.4703 11.1883 14.3188 11.1891 14.1613C11.1898 14.0031 11.1267 13.8508 11.0145 13.7386C10.903 13.6272 10.7507 13.5641 10.5924 13.5648L9.40885 13.5648ZM12.9715 13.5648H12.9707C12.8132 13.5655 12.6616 13.6287 12.5502 13.7401C12.4395 13.8523 12.3771 14.0038 12.3778 14.1613C12.3793 14.4881 12.6438 14.7526 12.9707 14.7533H14.1595C14.3171 14.754 14.4686 14.6924 14.5808 14.581C14.6923 14.4703 14.7562 14.3188 14.7562 14.1613C14.7569 14.0031 14.6945 13.8508 14.5823 13.7386C14.4701 13.6272 14.3178 13.564 14.1595 13.5648L12.9715 13.5648Z" fill="black" stroke="#14181F" stroke-width="2" mask="url(#path-1-inside-1_46_130932)"/>
</svg>
