<svg width="56" height="56" viewBox="0 0 56 56" fill="none" xmlns="http://www.w3.org/2000/svg">
<path fill-rule="evenodd" clip-rule="evenodd" d="M30.5455 7.63647C30.6029 7.63647 30.6598 7.64034 30.7159 7.64794L44.543 21.5564C44.5447 21.583 44.5455 21.6097 44.5455 21.6365V42.0001C44.5455 45.5146 41.6964 48.3637 38.1819 48.3637H17.8182C14.3037 48.3637 11.4546 45.5146 11.4546 42.0001V14.0001C11.4546 10.4856 14.3037 7.63647 17.8182 7.63647H30.5455ZM35.6364 20.3637C33.5276 20.3637 31.8182 18.6543 31.8182 16.5456V11.9818L40.2002 20.3637H35.6364ZM20.3637 25.4547H35.6364C36.3393 25.4547 36.9091 26.0245 36.9091 26.7274C36.9091 27.4303 36.3393 28.0001 35.6364 28.0001H20.3637C19.6608 28.0001 19.091 27.4303 19.091 26.7274C19.091 26.0245 19.6608 25.4547 20.3637 25.4547ZM35.6364 31.8183H20.3637C19.6608 31.8183 19.091 32.3881 19.091 33.091C19.091 33.7939 19.6608 34.3637 20.3637 34.3637H35.6364C36.3393 34.3637 36.9091 33.7939 36.9091 33.091C36.9091 32.3881 36.3393 31.8183 35.6364 31.8183ZM24.1819 38.1819H32.4546C33.1575 38.1819 33.7273 38.7517 33.7273 39.4547C33.7273 40.1576 33.1575 40.7274 32.4546 40.7274H24.1819C23.4789 40.7274 22.9091 40.1576 22.9091 39.4547C22.9091 38.7517 23.479 38.1819 24.1819 38.1819Z" fill="#012A6C"/>
</svg>
