<svg width="16" height="16" viewBox="0 0 16 16" fill="none" xmlns="http://www.w3.org/2000/svg">
<path d="M8.00016 14.6668C11.6821 14.6668 14.6668 11.6821 14.6668 8.00016C14.6668 4.31826 11.6821 1.3335 8.00016 1.3335C4.31826 1.3335 1.3335 4.31826 1.3335 8.00016C1.3335 11.6821 4.31826 14.6668 8.00016 14.6668Z" stroke="#DB6E00" stroke-width="1.5"/>
<path d="M8.00586 7.00545C7.45357 7.00545 7.00586 7.45317 7.00586 8.00545C7.00586 8.55774 7.45357 9.00545 8.00586 9.00545C8.55814 9.00545 9.00586 8.55774 9.00586 8.00545C9.00586 7.45317 8.55814 7.00545 8.00586 7.00545ZM8.00586 7.00545V4.66602M10.0105 10.0132L8.71138 8.71414" stroke="#DB6E00" stroke-width="1.5" stroke-linecap="round" stroke-linejoin="round"/>
</svg>
