<svg width="56" height="56" viewBox="0 0 56 56" fill="none" xmlns="http://www.w3.org/2000/svg">
<path d="M46.909 23.5945H45.0035L41.6871 14.8567C41.0762 13.0504 39.4035 11.8462 37.5417 11.8462H35.0108C34.3999 10.1427 32.7999 8.90918 30.909 8.90918H25.0908C23.1999 8.90918 21.5999 10.1427 20.989 11.8462H18.458C16.5962 11.8462 14.9235 13.0504 14.3417 14.798L10.9962 23.5945H9.09078C8.29078 23.5945 7.63623 24.2553 7.63623 25.063C7.63623 25.8707 8.29078 26.5316 9.09078 26.5316H9.36714L12.9744 43.6693C13.4253 45.6812 15.1853 47.091 17.2217 47.091H38.778C40.8144 47.091 42.5744 45.6812 43.0399 43.6546L46.6326 26.5316H46.909C47.709 26.5316 48.3635 25.8707 48.3635 25.063C48.3635 24.2553 47.709 23.5945 46.909 23.5945ZM22.1817 39.7483C22.1817 40.556 21.5271 41.2169 20.7271 41.2169C19.9271 41.2169 19.2726 40.556 19.2726 39.7483V30.9372C19.2726 30.1295 19.9271 29.4686 20.7271 29.4686C21.5271 29.4686 22.1817 30.1295 22.1817 30.9372V39.7483ZM29.4544 39.7483C29.4544 40.556 28.7999 41.2169 27.9999 41.2169C27.1999 41.2169 26.5453 40.556 26.5453 39.7483V30.9372C26.5453 30.1295 27.1999 29.4686 27.9999 29.4686C28.7999 29.4686 29.4544 30.1295 29.4544 30.9372V39.7483ZM36.7271 39.7483C36.7271 40.556 36.0726 41.2169 35.2726 41.2169C34.4726 41.2169 33.818 40.556 33.818 39.7483V30.9372C33.818 30.1295 34.4726 29.4686 35.2726 29.4686C36.0726 29.4686 36.7271 30.1295 36.7271 30.9372V39.7483ZM14.109 23.5945L17.0762 15.7966C17.2799 15.1945 17.8326 14.7833 18.458 14.7833H20.989C21.5999 16.4868 23.1999 17.7204 25.0908 17.7204H30.909C32.7999 17.7204 34.3999 16.4868 35.0108 14.7833H37.5417C38.1671 14.7833 38.7199 15.1945 38.9526 15.8553L41.8908 23.5945H14.109Z" fill="#012A6C"/>
</svg>
