<svg width="36" height="35" viewBox="0 0 36 35" fill="none" xmlns="http://www.w3.org/2000/svg">
<path fill-rule="evenodd" clip-rule="evenodd" d="M17.6651 0.00177198C8.00035 0.00177198 0.165833 7.8359 0.165833 17.5002C0.165833 19.9695 0.678137 22.3194 1.60202 24.4491C1.76752 24.8319 2.22227 24.97 2.56765 24.7714C5.09613 22.6446 8.00311 21.1149 11.1187 20.227C8.87951 18.3548 7.45625 15.5415 7.45625 12.3943C7.45625 6.75763 12.0267 2.18742 17.6637 2.18742C23.3006 2.18742 27.8711 6.75763 27.8711 12.3943C27.8711 15.5472 26.4406 18.3663 24.1928 20.2384C27.3127 21.1364 30.2284 22.679 32.7597 24.8002C33.1036 24.993 33.554 24.8548 33.7181 24.4749C34.6492 22.338 35.1658 19.9795 35.1658 17.4984C35.1658 7.83413 27.3313 0 17.6666 0L17.6651 0.00177198ZM4.15345 28.6196C3.92032 28.3361 3.95198 27.9203 4.22541 27.6756C7.86916 24.4206 12.5735 22.6029 17.6549 22.6029C22.7091 22.6029 27.4291 24.4492 31.0859 27.6926C31.3607 27.9372 31.3938 28.3559 31.1593 28.6394C27.9501 32.5233 23.096 35 17.6634 35C12.2309 35 7.36099 32.5163 4.15181 28.621L4.15345 28.6196ZM17.6621 5.47012C21.4873 5.47012 24.5885 8.57121 24.5885 12.3962C24.5885 16.2211 21.4873 19.3222 17.6621 19.3222C13.837 19.3222 10.7358 16.2211 10.7358 12.3962C10.7358 8.57121 13.837 5.47012 17.6621 5.47012Z" fill="white"/>
</svg>
