<svg width="20" height="20" viewBox="0 0 20 20" fill="none" xmlns="http://www.w3.org/2000/svg">
<path d="M18.0265 17.0773L14.9365 13.9964C15.9335 12.7264 16.4744 11.158 16.4724 9.54334C16.4724 8.10539 16.046 6.69974 15.2471 5.50413C14.4482 4.30852 13.3128 3.37666 11.9843 2.82638C10.6558 2.2761 9.19396 2.13212 7.78365 2.41265C6.37333 2.69318 5.07787 3.38562 4.06109 4.4024C3.04431 5.41918 2.35187 6.71464 2.07134 8.12495C1.79081 9.53527 1.93479 10.9971 2.48507 12.3256C3.03535 13.6541 3.96721 14.7896 5.16282 15.5884C6.35843 16.3873 7.76408 16.8137 9.20203 16.8137C10.8166 16.8157 12.3851 16.2748 13.6551 15.2779L16.736 18.3678C16.8204 18.4529 16.921 18.5206 17.0317 18.5667C17.1425 18.6128 17.2612 18.6366 17.3812 18.6366C17.5012 18.6366 17.62 18.6128 17.7307 18.5667C17.8415 18.5206 17.942 18.4529 18.0265 18.3678C18.1116 18.2833 18.1792 18.1828 18.2254 18.072C18.2715 17.9613 18.2953 17.8425 18.2953 17.7225C18.2953 17.6025 18.2715 17.4838 18.2254 17.373C18.1792 17.2623 18.1116 17.1618 18.0265 17.0773ZM3.74924 9.54334C3.74924 8.46488 4.06904 7.41064 4.6682 6.51393C5.26736 5.61722 6.11897 4.91833 7.11534 4.50562C8.1117 4.09291 9.20808 3.98493 10.2658 4.19532C11.3236 4.40572 12.2951 4.92505 13.0577 5.68763C13.8203 6.45022 14.3396 7.42181 14.55 8.47955C14.7604 9.53729 14.6525 10.6337 14.2397 11.63C13.827 12.6264 13.1281 13.478 12.2314 14.0772C11.3347 14.6763 10.2805 14.9961 9.20203 14.9961C7.75586 14.9961 6.36892 14.4216 5.34632 13.399C4.32373 12.3764 3.74924 10.9895 3.74924 9.54334Z" fill="black"/>
</svg>
