<svg width="30" height="31" viewBox="0 0 30 31" fill="none" xmlns="http://www.w3.org/2000/svg">
<path d="M27.0399 26.1156L22.4051 21.4944C23.9005 19.5892 24.7119 17.2366 24.7089 14.8147C24.7089 12.6578 24.0693 10.5493 22.8709 8.75589C21.6726 6.96247 19.9694 5.56468 17.9767 4.73926C15.9839 3.91384 13.7912 3.69788 11.6757 4.11867C9.56024 4.53947 7.61705 5.57812 6.09188 7.10329C4.56671 8.62846 3.52805 10.5717 3.10726 12.6871C2.68646 14.8026 2.90243 16.9953 3.72785 18.9881C4.55326 20.9808 5.95106 22.684 7.74447 23.8824C9.53789 25.0807 11.6464 25.7203 13.8033 25.7203C16.2252 25.7233 18.5778 24.9119 20.483 23.4165L25.1042 28.0513C25.2309 28.1791 25.3817 28.2805 25.5478 28.3497C25.7139 28.4189 25.8921 28.4546 26.0721 28.4546C26.252 28.4546 26.4302 28.4189 26.5963 28.3497C26.7624 28.2805 26.9132 28.1791 27.0399 28.0513C27.1677 27.9246 27.2691 27.7738 27.3383 27.6077C27.4075 27.4416 27.4432 27.2634 27.4432 27.0835C27.4432 26.9035 27.4075 26.7253 27.3383 26.5592C27.2691 26.3931 27.1677 26.2423 27.0399 26.1156ZM5.6241 14.8147C5.6241 13.197 6.1038 11.6156 7.00254 10.2706C7.90128 8.92553 9.1787 7.87718 10.6732 7.25812C12.1678 6.63906 13.8124 6.47708 15.399 6.79268C16.9856 7.10827 18.443 7.88727 19.5868 9.03114C20.7307 10.175 21.5097 11.6324 21.8253 13.219C22.1409 14.8056 21.9789 16.4502 21.3599 17.9447C20.7408 19.4393 19.6925 20.7167 18.3474 21.6154C17.0023 22.5142 15.421 22.9939 13.8033 22.9939C11.634 22.9939 9.55363 22.1321 8.01973 20.5983C6.48584 19.0644 5.6241 16.984 5.6241 14.8147Z" fill="black"/>
</svg>
