<svg width="17" height="16" viewBox="0 0 17 16" fill="none" xmlns="http://www.w3.org/2000/svg">
<path d="M8.40007 14.6668C12.082 14.6668 15.0667 11.6821 15.0667 8.00016C15.0667 4.31826 12.082 1.3335 8.40007 1.3335C4.71817 1.3335 1.7334 4.31826 1.7334 8.00016C1.7334 11.6821 4.71817 14.6668 8.40007 14.6668Z" stroke="#DB6E00" stroke-width="1.5"/>
<path d="M8.40576 7.00545C7.85348 7.00545 7.40576 7.45317 7.40576 8.00545C7.40576 8.55774 7.85348 9.00545 8.40576 9.00545C8.95805 9.00545 9.40576 8.55774 9.40576 8.00545C9.40576 7.45317 8.95805 7.00545 8.40576 7.00545ZM8.40576 7.00545V4.66602M10.4104 10.0132L9.11128 8.71414" stroke="#DB6E00" stroke-width="1.5" stroke-linecap="round" stroke-linejoin="round"/>
</svg>
