<svg width="34" height="34" viewBox="0 0 34 34" fill="none" xmlns="http://www.w3.org/2000/svg">
<path d="M8.46356 26.5817H6.02862C5.22293 26.5817 4.48876 26.244 3.95461 25.6996C3.42157 25.1588 3.09082 24.4079 3.09082 23.5818V12.4446C3.09082 11.6185 3.42046 10.8676 3.95238 10.3256L4.00825 10.2742C4.52452 9.77213 5.21847 9.45947 5.98056 9.44694V6.78703C5.98056 6.30321 6.36498 5.91066 6.83877 5.91066H8.46356V4.73989C8.46356 4.25608 8.84798 3.86353 9.32177 3.86353H24.6803C25.1541 3.86353 25.5385 4.25608 25.5385 4.73989V5.91066H27.1622C27.636 5.91066 28.0204 6.30321 28.0204 6.78703V9.44694C28.8104 9.45949 29.5267 9.79384 30.0474 10.3267C30.5794 10.8699 30.909 11.6207 30.909 12.4458V23.5829C30.909 24.4091 30.5794 25.1599 30.0474 25.7031L29.9916 25.7556C29.463 26.2679 28.7512 26.584 27.9723 26.584H25.5385V29.2599C25.5385 29.7437 25.1541 30.1363 24.6803 30.1363H9.32177C8.84798 30.1363 8.46356 29.7437 8.46356 29.2599V26.5817ZM7.69697 9.44466H8.46356V7.66225H7.69697V9.44466ZM25.5394 9.44466H26.3049V7.66225H25.5394V9.44466ZM7.0064 12.1012C7.6266 12.1012 8.12945 12.6147 8.12945 13.248C8.12945 13.8824 7.6266 14.3959 7.0064 14.3959C6.38509 14.3959 5.88223 13.8824 5.88223 13.248C5.88223 12.6147 6.38509 12.1012 7.0064 12.1012ZM11.7946 27.0084C11.3209 27.0084 10.9364 26.6159 10.9364 26.1321C10.9364 25.6483 11.3209 25.2557 11.7946 25.2557H22.2082C22.6819 25.2557 23.0664 25.6483 23.0664 26.1321C23.0664 26.6159 22.6819 27.0084 22.2082 27.0084H11.7946ZM11.7946 23.777C11.3209 23.777 10.9364 23.3844 10.9364 22.9006C10.9364 22.4168 11.3209 22.0243 11.7946 22.0243H22.2082C22.6819 22.0243 23.0664 22.4168 23.0664 22.9006C23.0664 23.3844 22.6819 23.777 22.2082 23.777H11.7946ZM25.5394 24.8302H27.9733C28.2929 24.8302 28.5845 24.7047 28.8013 24.5005L28.8359 24.4639C29.0572 24.238 29.1946 23.9253 29.1946 23.583V12.4459C29.1946 12.1035 29.0572 11.792 28.8359 11.5661C28.6147 11.3401 28.3085 11.1998 27.9744 11.1998H26.4144V12.7357C26.4144 13.2834 26.1943 13.7844 25.8378 14.1472C25.4847 14.5113 24.9941 14.736 24.4544 14.736H19.8427C19.3029 14.736 18.8124 14.5112 18.4581 14.1495L18.4 14.0845C18.0793 13.7273 17.8827 13.2526 17.8827 12.7357V11.2009H6.02964C5.71004 11.2009 5.41839 11.3276 5.20049 11.5318L5.16809 11.5672C4.94683 11.7931 4.80938 12.1058 4.80938 12.447V23.5841C4.80938 23.9265 4.94683 24.2391 5.16809 24.4651C5.38711 24.6933 5.69328 24.8325 6.02964 24.8325H8.46458V23.8854H6.83979C6.366 23.8854 5.98158 23.4928 5.98158 23.009V19.7764C5.98158 19.2926 6.366 18.9 6.83979 18.9H27.1631C27.6368 18.9 28.0213 19.2926 28.0213 19.7764V23.009C28.0213 23.4928 27.6368 23.8854 27.1631 23.8854H25.5394V24.8325L25.5394 24.8302ZM10.1809 28.3824H23.823V20.6514H10.1809V28.3836V28.3824ZM8.4645 22.1304V20.6504H7.69792V22.1304H8.4645ZM25.5394 20.6504V22.1304H26.3049V20.6504H25.5394ZM24.6969 11.1977H19.5991V12.7324C19.5991 12.7906 19.6181 12.8443 19.6494 12.8853L19.6717 12.907C19.7164 12.9527 19.7768 12.9801 19.8427 12.9801H24.4545C24.5204 12.9801 24.5818 12.9515 24.6254 12.907C24.6712 12.8648 24.6969 12.802 24.6969 12.7324L24.6969 11.1977ZM10.1811 9.44492H23.8232V5.61549H10.1811V9.44492Z" fill="black"/>
</svg>
