<svg width="30" height="31" viewBox="0 0 30 31" fill="none" xmlns="http://www.w3.org/2000/svg">
<path d="M27.0399 26.1147L22.4051 21.4934C23.9005 19.5883 24.7119 17.2357 24.7089 14.8138C24.7089 12.6569 24.0693 10.5484 22.8709 8.75497C21.6726 6.96156 19.9694 5.56376 17.9767 4.73835C15.9839 3.91293 13.7912 3.69696 11.6757 4.11776C9.56024 4.53855 7.61705 5.57721 6.09188 7.10238C4.56671 8.62755 3.52805 10.5707 3.10726 12.6862C2.68646 14.8017 2.90243 16.9944 3.72785 18.9872C4.55326 20.9799 5.95106 22.6831 7.74447 23.8814C9.53789 25.0798 11.6464 25.7194 13.8033 25.7194C16.2252 25.7224 18.5778 24.911 20.483 23.4156L25.1042 28.0504C25.2309 28.1782 25.3817 28.2796 25.5478 28.3488C25.7139 28.418 25.8921 28.4537 26.0721 28.4537C26.252 28.4537 26.4302 28.418 26.5963 28.3488C26.7624 28.2796 26.9132 28.1782 27.0399 28.0504C27.1677 27.9237 27.2691 27.7729 27.3383 27.6068C27.4075 27.4407 27.4432 27.2625 27.4432 27.0826C27.4432 26.9026 27.4075 26.7244 27.3383 26.5583C27.2691 26.3922 27.1677 26.2414 27.0399 26.1147ZM5.6241 14.8138C5.6241 13.1961 6.1038 11.6147 7.00254 10.2697C7.90128 8.92461 9.1787 7.87627 10.6732 7.2572C12.1678 6.63814 13.8124 6.47617 15.399 6.79176C16.9856 7.10736 18.443 7.88635 19.5868 9.03023C20.7307 10.1741 21.5097 11.6315 21.8253 13.2181C22.1409 14.8047 21.9789 16.4493 21.3599 17.9438C20.7408 19.4384 19.6925 20.7158 18.3474 21.6145C17.0023 22.5133 15.421 22.993 13.8033 22.993C11.634 22.993 9.55363 22.1312 8.01973 20.5973C6.48584 19.0634 5.6241 16.983 5.6241 14.8138Z" fill="black"/>
</svg>
