<svg width="36" height="35" viewBox="0 0 36 35" fill="none" xmlns="http://www.w3.org/2000/svg">
<path fill-rule="evenodd" clip-rule="evenodd" d="M17.6653 0.00177198C8.00053 0.00177198 0.166016 7.8359 0.166016 17.5002C0.166016 19.9695 0.67832 22.3194 1.60221 24.4491C1.7677 24.8319 2.22246 24.97 2.56784 24.7714C5.09631 22.6446 8.00329 21.1149 11.1189 20.227C8.87969 18.3548 7.45643 15.5415 7.45643 12.3943C7.45643 6.75763 12.0269 2.18742 17.6638 2.18742C23.3008 2.18742 27.8713 6.75763 27.8713 12.3943C27.8713 15.5472 26.4408 18.3663 24.1929 20.2384C27.3129 21.1364 30.2285 22.679 32.7599 24.8002C33.1038 24.993 33.5542 24.8548 33.7183 24.4749C34.6494 22.338 35.166 19.9795 35.166 17.4984C35.166 7.83413 27.3315 0 17.6668 0L17.6653 0.00177198ZM4.15364 28.6196C3.92051 28.3361 3.95216 27.9203 4.22559 27.6756C7.86934 24.4206 12.5737 22.6029 17.6551 22.6029C22.7092 22.6029 27.4292 24.4492 31.086 27.6926C31.3609 27.9372 31.394 28.3559 31.1594 28.6394C27.9503 32.5233 23.0961 35 17.6636 35C12.2311 35 7.36117 32.5163 4.15199 28.621L4.15364 28.6196ZM17.6623 5.47012C21.4875 5.47012 24.5887 8.57121 24.5887 12.3962C24.5887 16.2211 21.4875 19.3222 17.6623 19.3222C13.8372 19.3222 10.7359 16.2211 10.7359 12.3962C10.7359 8.57121 13.8372 5.47012 17.6623 5.47012Z" fill="white"/>
</svg>
