<svg width="25" height="24" viewBox="0 0 25 24" fill="none" xmlns="http://www.w3.org/2000/svg">
<path d="M13.5 20.0002H6.5C6.23478 20.0002 5.98043 19.8949 5.79289 19.7074C5.60536 19.5198 5.5 19.2655 5.5 19.0002V5.00024C5.5 4.73503 5.60536 4.48067 5.79289 4.29314C5.98043 4.1056 6.23478 4.00024 6.5 4.00024H11.5V7.00024C11.5 7.79589 11.8161 8.55896 12.3787 9.12156C12.9413 9.68417 13.7044 10.0002 14.5 10.0002H17.5V12.0002C17.5 12.2655 17.6054 12.5198 17.7929 12.7074C17.9804 12.8949 18.2348 13.0002 18.5 13.0002C18.7652 13.0002 19.0196 12.8949 19.2071 12.7074C19.3946 12.5198 19.5 12.2655 19.5 12.0002V9.00024C19.5 9.00024 19.5 9.00024 19.5 8.94024C19.4896 8.84838 19.4695 8.75787 19.44 8.67024V8.58024C19.3919 8.47742 19.3278 8.38291 19.25 8.30024L13.25 2.30024C13.1673 2.22246 13.0728 2.15833 12.97 2.11024C12.9402 2.106 12.9099 2.106 12.88 2.11024C12.7784 2.05199 12.6662 2.01459 12.55 2.00024H6.5C5.70435 2.00024 4.94129 2.31631 4.37868 2.87892C3.81607 3.44153 3.5 4.20459 3.5 5.00024V19.0002C3.5 19.7959 3.81607 20.559 4.37868 21.1216C4.94129 21.6842 5.70435 22.0002 6.5 22.0002H13.5C13.7652 22.0002 14.0196 21.8949 14.2071 21.7074C14.3946 21.5198 14.5 21.2655 14.5 21.0002C14.5 20.735 14.3946 20.4807 14.2071 20.2931C14.0196 20.1056 13.7652 20.0002 13.5 20.0002ZM13.5 5.41024L16.09 8.00024H14.5C14.2348 8.00024 13.9804 7.89489 13.7929 7.70735C13.6054 7.51981 13.5 7.26546 13.5 7.00024V5.41024ZM8.5 8.00024C8.23478 8.00024 7.98043 8.1056 7.79289 8.29314C7.60536 8.48067 7.5 8.73503 7.5 9.00024C7.5 9.26546 7.60536 9.51981 7.79289 9.70735C7.98043 9.89489 8.23478 10.0002 8.5 10.0002H9.5C9.76522 10.0002 10.0196 9.89489 10.2071 9.70735C10.3946 9.51981 10.5 9.26546 10.5 9.00024C10.5 8.73503 10.3946 8.48067 10.2071 8.29314C10.0196 8.1056 9.76522 8.00024 9.5 8.00024H8.5ZM14.5 12.0002H8.5C8.23478 12.0002 7.98043 12.1056 7.79289 12.2931C7.60536 12.4807 7.5 12.735 7.5 13.0002C7.5 13.2655 7.60536 13.5198 7.79289 13.7074C7.98043 13.8949 8.23478 14.0002 8.5 14.0002H14.5C14.7652 14.0002 15.0196 13.8949 15.2071 13.7074C15.3946 13.5198 15.5 13.2655 15.5 13.0002C15.5 12.735 15.3946 12.4807 15.2071 12.2931C15.0196 12.1056 14.7652 12.0002 14.5 12.0002ZM21.21 17.2902L19.21 15.2902C19.1149 15.1992 19.0028 15.1278 18.88 15.0802C18.6365 14.9802 18.3635 14.9802 18.12 15.0802C17.9972 15.1278 17.8851 15.1992 17.79 15.2902L15.79 17.2902C15.6017 17.4785 15.4959 17.7339 15.4959 18.0002C15.4959 18.2665 15.6017 18.5219 15.79 18.7102C15.9783 18.8985 16.2337 19.0043 16.5 19.0043C16.7663 19.0043 17.0217 18.8985 17.21 18.7102L17.5 18.4102V21.0002C17.5 21.2655 17.6054 21.5198 17.7929 21.7074C17.9804 21.8949 18.2348 22.0002 18.5 22.0002C18.7652 22.0002 19.0196 21.8949 19.2071 21.7074C19.3946 21.5198 19.5 21.2655 19.5 21.0002V18.4102L19.79 18.7102C19.883 18.804 19.9936 18.8784 20.1154 18.9291C20.2373 18.9799 20.368 19.006 20.5 19.006C20.632 19.006 20.7627 18.9799 20.8846 18.9291C21.0064 18.8784 21.117 18.804 21.21 18.7102C21.3037 18.6173 21.3781 18.5067 21.4289 18.3848C21.4797 18.263 21.5058 18.1323 21.5058 18.0002C21.5058 17.8682 21.4797 17.7375 21.4289 17.6157C21.3781 17.4938 21.3037 17.3832 21.21 17.2902ZM12.5 18.0002C12.7652 18.0002 13.0196 17.8949 13.2071 17.7074C13.3946 17.5198 13.5 17.2655 13.5 17.0002C13.5 16.735 13.3946 16.4807 13.2071 16.2931C13.0196 16.1056 12.7652 16.0002 12.5 16.0002H8.5C8.23478 16.0002 7.98043 16.1056 7.79289 16.2931C7.60536 16.4807 7.5 16.735 7.5 17.0002C7.5 17.2655 7.60536 17.5198 7.79289 17.7074C7.98043 17.8949 8.23478 18.0002 8.5 18.0002H12.5Z" fill="#121212"/>
</svg>
