<svg width="25" height="24" viewBox="0 0 25 24" fill="none" xmlns="http://www.w3.org/2000/svg">
<path d="M13.5 20.0001H6.5C6.23478 20.0001 5.98043 19.8948 5.79289 19.7072C5.60536 19.5197 5.5 19.2653 5.5 19.0001V5.00012C5.5 4.73491 5.60536 4.48055 5.79289 4.29302C5.98043 4.10548 6.23478 4.00012 6.5 4.00012H11.5V7.00012C11.5 7.79577 11.8161 8.55883 12.3787 9.12144C12.9413 9.68405 13.7044 10.0001 14.5 10.0001H17.5V12.0001C17.5 12.2653 17.6054 12.5197 17.7929 12.7072C17.9804 12.8948 18.2348 13.0001 18.5 13.0001C18.7652 13.0001 19.0196 12.8948 19.2071 12.7072C19.3946 12.5197 19.5 12.2653 19.5 12.0001V9.00012C19.5 9.00012 19.5 9.00012 19.5 8.94012C19.4896 8.84826 19.4695 8.75775 19.44 8.67012V8.58012C19.3919 8.4773 19.3278 8.38279 19.25 8.30012L13.25 2.30012C13.1673 2.22234 13.0728 2.1582 12.97 2.11012C12.9402 2.10588 12.9099 2.10588 12.88 2.11012C12.7784 2.05186 12.6662 2.01447 12.55 2.00012H6.5C5.70435 2.00012 4.94129 2.31619 4.37868 2.8788C3.81607 3.44141 3.5 4.20447 3.5 5.00012V19.0001C3.5 19.7958 3.81607 20.5588 4.37868 21.1214C4.94129 21.6841 5.70435 22.0001 6.5 22.0001H13.5C13.7652 22.0001 14.0196 21.8948 14.2071 21.7072C14.3946 21.5197 14.5 21.2653 14.5 21.0001C14.5 20.7349 14.3946 20.4806 14.2071 20.293C14.0196 20.1055 13.7652 20.0001 13.5 20.0001ZM13.5 5.41012L16.09 8.00012H14.5C14.2348 8.00012 13.9804 7.89477 13.7929 7.70723C13.6054 7.51969 13.5 7.26534 13.5 7.00012V5.41012ZM8.5 8.00012C8.23478 8.00012 7.98043 8.10548 7.79289 8.29302C7.60536 8.48055 7.5 8.73491 7.5 9.00012C7.5 9.26534 7.60536 9.51969 7.79289 9.70723C7.98043 9.89477 8.23478 10.0001 8.5 10.0001H9.5C9.76522 10.0001 10.0196 9.89477 10.2071 9.70723C10.3946 9.51969 10.5 9.26534 10.5 9.00012C10.5 8.73491 10.3946 8.48055 10.2071 8.29302C10.0196 8.10548 9.76522 8.00012 9.5 8.00012H8.5ZM14.5 12.0001H8.5C8.23478 12.0001 7.98043 12.1055 7.79289 12.293C7.60536 12.4806 7.5 12.7349 7.5 13.0001C7.5 13.2653 7.60536 13.5197 7.79289 13.7072C7.98043 13.8948 8.23478 14.0001 8.5 14.0001H14.5C14.7652 14.0001 15.0196 13.8948 15.2071 13.7072C15.3946 13.5197 15.5 13.2653 15.5 13.0001C15.5 12.7349 15.3946 12.4806 15.2071 12.293C15.0196 12.1055 14.7652 12.0001 14.5 12.0001ZM21.21 17.2901L19.21 15.2901C19.1149 15.1991 19.0028 15.1277 18.88 15.0801C18.6365 14.9801 18.3635 14.9801 18.12 15.0801C17.9972 15.1277 17.8851 15.1991 17.79 15.2901L15.79 17.2901C15.6017 17.4784 15.4959 17.7338 15.4959 18.0001C15.4959 18.2664 15.6017 18.5218 15.79 18.7101C15.9783 18.8984 16.2337 19.0042 16.5 19.0042C16.7663 19.0042 17.0217 18.8984 17.21 18.7101L17.5 18.4101V21.0001C17.5 21.2653 17.6054 21.5197 17.7929 21.7072C17.9804 21.8948 18.2348 22.0001 18.5 22.0001C18.7652 22.0001 19.0196 21.8948 19.2071 21.7072C19.3946 21.5197 19.5 21.2653 19.5 21.0001V18.4101L19.79 18.7101C19.883 18.8038 19.9936 18.8782 20.1154 18.929C20.2373 18.9798 20.368 19.0059 20.5 19.0059C20.632 19.0059 20.7627 18.9798 20.8846 18.929C21.0064 18.8782 21.117 18.8038 21.21 18.7101C21.3037 18.6172 21.3781 18.5066 21.4289 18.3847C21.4797 18.2628 21.5058 18.1321 21.5058 18.0001C21.5058 17.8681 21.4797 17.7374 21.4289 17.6155C21.3781 17.4937 21.3037 17.3831 21.21 17.2901ZM12.5 18.0001C12.7652 18.0001 13.0196 17.8948 13.2071 17.7072C13.3946 17.5197 13.5 17.2653 13.5 17.0001C13.5 16.7349 13.3946 16.4806 13.2071 16.293C13.0196 16.1055 12.7652 16.0001 12.5 16.0001H8.5C8.23478 16.0001 7.98043 16.1055 7.79289 16.293C7.60536 16.4806 7.5 16.7349 7.5 17.0001C7.5 17.2653 7.60536 17.5197 7.79289 17.7072C7.98043 17.8948 8.23478 18.0001 8.5 18.0001H12.5Z" fill="#121212"/>
</svg>
