<svg width="24" height="24" viewBox="0 0 24 24" fill="none" xmlns="http://www.w3.org/2000/svg">
<path d="M20.25 4.50024H16.5V3.75024C16.5 3.15351 16.2629 2.58121 15.841 2.15925C15.419 1.7373 14.8467 1.50024 14.25 1.50024H9.75C9.15326 1.50024 8.58097 1.7373 8.15901 2.15925C7.73705 2.58121 7.5 3.15351 7.5 3.75024V4.50024H3.75C3.55109 4.50024 3.36032 4.57926 3.21967 4.71991C3.07902 4.86057 3 5.05133 3 5.25024C3 5.44916 3.07902 5.63992 3.21967 5.78057C3.36032 5.92123 3.55109 6.00024 3.75 6.00024H4.5V19.5002C4.5 19.8981 4.65804 20.2796 4.93934 20.5609C5.22064 20.8422 5.60218 21.0002 6 21.0002H18C18.3978 21.0002 18.7794 20.8422 19.0607 20.5609C19.342 20.2796 19.5 19.8981 19.5 19.5002V6.00024H20.25C20.4489 6.00024 20.6397 5.92123 20.7803 5.78057C20.921 5.63992 21 5.44916 21 5.25024C21 5.05133 20.921 4.86057 20.7803 4.71991C20.6397 4.57926 20.4489 4.50024 20.25 4.50024ZM10.5 15.7502C10.5 15.9492 10.421 16.1399 10.2803 16.2806C10.1397 16.4212 9.94891 16.5002 9.75 16.5002C9.55109 16.5002 9.36032 16.4212 9.21967 16.2806C9.07902 16.1399 9 15.9492 9 15.7502V9.75024C9 9.55133 9.07902 9.36057 9.21967 9.21991C9.36032 9.07926 9.55109 9.00024 9.75 9.00024C9.94891 9.00024 10.1397 9.07926 10.2803 9.21991C10.421 9.36057 10.5 9.55133 10.5 9.75024V15.7502ZM15 15.7502C15 15.9492 14.921 16.1399 14.7803 16.2806C14.6397 16.4212 14.4489 16.5002 14.25 16.5002C14.0511 16.5002 13.8603 16.4212 13.7197 16.2806C13.579 16.1399 13.5 15.9492 13.5 15.7502V9.75024C13.5 9.55133 13.579 9.36057 13.7197 9.21991C13.8603 9.07926 14.0511 9.00024 14.25 9.00024C14.4489 9.00024 14.6397 9.07926 14.7803 9.21991C14.921 9.36057 15 9.55133 15 9.75024V15.7502ZM15 4.50024H9V3.75024C9 3.55133 9.07902 3.36057 9.21967 3.21991C9.36032 3.07926 9.55109 3.00024 9.75 3.00024H14.25C14.4489 3.00024 14.6397 3.07926 14.7803 3.21991C14.921 3.36057 15 3.55133 15 3.75024V4.50024Z" fill="#FF3333"/>
</svg>
