<svg width="17" height="16" viewBox="0 0 17 16" fill="none" xmlns="http://www.w3.org/2000/svg">
<path d="M14.75 8.00098C14.75 8.19989 14.671 8.39065 14.5303 8.53131C14.3897 8.67196 14.1989 8.75098 14 8.75098H9.25V13.501C9.25 13.6999 9.17098 13.8907 9.03033 14.0313C8.88968 14.172 8.69891 14.251 8.5 14.251C8.30109 14.251 8.11032 14.172 7.96967 14.0313C7.82902 13.8907 7.75 13.6999 7.75 13.501V8.75098H3C2.80109 8.75098 2.61032 8.67196 2.46967 8.53131C2.32902 8.39065 2.25 8.19989 2.25 8.00098C2.25 7.80206 2.32902 7.6113 2.46967 7.47065C2.61032 7.32999 2.80109 7.25098 3 7.25098H7.75V2.50098C7.75 2.30206 7.82902 2.1113 7.96967 1.97065C8.11032 1.82999 8.30109 1.75098 8.5 1.75098C8.69891 1.75098 8.88968 1.82999 9.03033 1.97065C9.17098 2.1113 9.25 2.30206 9.25 2.50098V7.25098H14C14.1989 7.25098 14.3897 7.32999 14.5303 7.47065C14.671 7.6113 14.75 7.80206 14.75 8.00098Z" fill="black"/>
</svg>
