<svg width="34" height="34" viewBox="0 0 34 34" fill="none" xmlns="http://www.w3.org/2000/svg">
<path d="M28.8464 9.99242L22.0492 3.413C21.6359 3.01086 21.0717 2.78186 20.4909 2.78186L7.68948 2.74835C6.13678 2.74835 4.87451 3.99945 4.87451 5.54098V28.541C4.87451 30.0547 6.17588 31.3393 7.71741 31.3393H26.6514C28.165 31.3393 29.3938 30.0826 29.3938 28.5355V11.3273C29.3938 10.8079 29.1983 10.3331 28.8464 9.99242ZM22.0212 6.49606L25.5344 9.89189H22.63C22.3061 9.89189 22.0212 9.64055 22.0212 9.35571V6.49606ZM26.6514 29.1052H7.71741C7.40463 29.1052 7.10861 28.8315 7.10861 28.5355V5.54098C7.10861 5.24496 7.38229 4.98245 7.68948 4.98245L19.7871 5.01596V9.35571C19.7871 10.8805 21.0606 12.126 22.63 12.126H27.1597V28.5355C27.1597 28.8147 26.9698 29.1052 26.6514 29.1052Z" fill="#FCA0A6"/>
<path d="M9.73389 17.6554C9.73389 18.2698 10.2366 18.7725 10.8509 18.7725H20.6251C21.2395 18.7725 21.7422 18.2698 21.7422 17.6554C21.7422 17.0411 21.2395 16.5384 20.6251 16.5384H10.8509C10.2366 16.5384 9.73389 17.0411 9.73389 17.6554Z" fill="#FCA0A6"/>
<path d="M10.7948 14.3042H17.2737C17.8881 14.3042 18.3907 13.8016 18.3907 13.1872C18.3907 12.5728 17.8881 12.0701 17.2737 12.0701H10.7948C10.1804 12.0701 9.67773 12.5728 9.67773 13.1872C9.67773 13.8016 10.1804 14.3042 10.7948 14.3042Z" fill="#FCA0A6"/>
<path d="M23.4178 21.0065H10.8509C10.2366 21.0065 9.73389 21.5092 9.73389 22.1236C9.73389 22.738 10.2366 23.2406 10.8509 23.2406H23.4178C24.0321 23.2406 24.5348 22.738 24.5348 22.1236C24.5348 21.5092 24.0321 21.0065 23.4178 21.0065Z" fill="#FCA0A6"/>
</svg>
