<svg width="30" height="31" viewBox="0 0 30 31" fill="none" xmlns="http://www.w3.org/2000/svg">
<path d="M27.0402 26.1158L22.4053 21.4946C23.9007 19.5894 24.7121 17.2368 24.7091 14.8149C24.7091 12.658 24.0695 10.5495 22.8712 8.7561C21.6729 6.96269 19.9696 5.56489 17.9769 4.73947C15.9842 3.91406 13.7914 3.69809 11.676 4.11888C9.56048 4.53968 7.6173 5.57833 6.09212 7.10351C4.56695 8.62868 3.5283 10.5719 3.1075 12.6873C2.68671 14.8028 2.90267 16.9956 3.72809 18.9883C4.55351 20.981 5.9513 22.6842 7.74472 23.8826C9.53813 25.0809 11.6466 25.7205 13.8035 25.7205C16.2255 25.7235 18.5781 24.9121 20.4832 23.4167L25.1044 28.0516C25.2312 28.1793 25.3819 28.2807 25.548 28.3499C25.7142 28.4192 25.8923 28.4548 26.0723 28.4548C26.2523 28.4548 26.4304 28.4192 26.5966 28.3499C26.7627 28.2807 26.9134 28.1793 27.0402 28.0516C27.1679 27.9248 27.2694 27.7741 27.3386 27.6079C27.4078 27.4418 27.4434 27.2636 27.4434 27.0837C27.4434 26.9037 27.4078 26.7256 27.3386 26.5594C27.2694 26.3933 27.1679 26.2425 27.0402 26.1158ZM5.62435 14.8149C5.62435 13.1972 6.10405 11.6159 7.00279 10.2708C7.90153 8.92574 9.17894 7.8774 10.6735 7.25833C12.168 6.63927 13.8126 6.4773 15.3992 6.79289C16.9858 7.10849 18.4432 7.88748 19.5871 9.03136C20.731 10.1752 21.51 11.6326 21.8256 13.2192C22.1411 14.8058 21.9792 16.4504 21.3601 17.945C20.741 19.4395 19.6927 20.7169 18.3476 21.6157C17.0026 22.5144 15.4212 22.9941 13.8035 22.9941C11.6343 22.9941 9.55387 22.1324 8.01998 20.5985C6.48608 19.0646 5.62435 16.9842 5.62435 14.8149Z" fill="black"/>
</svg>
