<svg width="25" height="24" viewBox="0 0 25 24" fill="none" xmlns="http://www.w3.org/2000/svg">
<path d="M13.5 20H6.5C6.23478 20 5.98043 19.8946 5.79289 19.7071C5.60536 19.5196 5.5 19.2652 5.5 19V5C5.5 4.73478 5.60536 4.48043 5.79289 4.29289C5.98043 4.10536 6.23478 4 6.5 4H11.5V7C11.5 7.79565 11.8161 8.55871 12.3787 9.12132C12.9413 9.68393 13.7044 10 14.5 10H17.5V12C17.5 12.2652 17.6054 12.5196 17.7929 12.7071C17.9804 12.8946 18.2348 13 18.5 13C18.7652 13 19.0196 12.8946 19.2071 12.7071C19.3946 12.5196 19.5 12.2652 19.5 12V9C19.5 9 19.5 9 19.5 8.94C19.4896 8.84813 19.4695 8.75763 19.44 8.67V8.58C19.3919 8.47718 19.3278 8.38267 19.25 8.3L13.25 2.3C13.1673 2.22222 13.0728 2.15808 12.97 2.11C12.9402 2.10576 12.9099 2.10576 12.88 2.11C12.7784 2.05174 12.6662 2.01434 12.55 2H6.5C5.70435 2 4.94129 2.31607 4.37868 2.87868C3.81607 3.44129 3.5 4.20435 3.5 5V19C3.5 19.7956 3.81607 20.5587 4.37868 21.1213C4.94129 21.6839 5.70435 22 6.5 22H13.5C13.7652 22 14.0196 21.8946 14.2071 21.7071C14.3946 21.5196 14.5 21.2652 14.5 21C14.5 20.7348 14.3946 20.4804 14.2071 20.2929C14.0196 20.1054 13.7652 20 13.5 20ZM13.5 5.41L16.09 8H14.5C14.2348 8 13.9804 7.89464 13.7929 7.70711C13.6054 7.51957 13.5 7.26522 13.5 7V5.41ZM8.5 8C8.23478 8 7.98043 8.10536 7.79289 8.29289C7.60536 8.48043 7.5 8.73478 7.5 9C7.5 9.26522 7.60536 9.51957 7.79289 9.70711C7.98043 9.89464 8.23478 10 8.5 10H9.5C9.76522 10 10.0196 9.89464 10.2071 9.70711C10.3946 9.51957 10.5 9.26522 10.5 9C10.5 8.73478 10.3946 8.48043 10.2071 8.29289C10.0196 8.10536 9.76522 8 9.5 8H8.5ZM14.5 12H8.5C8.23478 12 7.98043 12.1054 7.79289 12.2929C7.60536 12.4804 7.5 12.7348 7.5 13C7.5 13.2652 7.60536 13.5196 7.79289 13.7071C7.98043 13.8946 8.23478 14 8.5 14H14.5C14.7652 14 15.0196 13.8946 15.2071 13.7071C15.3946 13.5196 15.5 13.2652 15.5 13C15.5 12.7348 15.3946 12.4804 15.2071 12.2929C15.0196 12.1054 14.7652 12 14.5 12ZM21.21 17.29L19.21 15.29C19.1149 15.199 19.0028 15.1276 18.88 15.08C18.6365 14.98 18.3635 14.98 18.12 15.08C17.9972 15.1276 17.8851 15.199 17.79 15.29L15.79 17.29C15.6017 17.4783 15.4959 17.7337 15.4959 18C15.4959 18.2663 15.6017 18.5217 15.79 18.71C15.9783 18.8983 16.2337 19.0041 16.5 19.0041C16.7663 19.0041 17.0217 18.8983 17.21 18.71L17.5 18.41V21C17.5 21.2652 17.6054 21.5196 17.7929 21.7071C17.9804 21.8946 18.2348 22 18.5 22C18.7652 22 19.0196 21.8946 19.2071 21.7071C19.3946 21.5196 19.5 21.2652 19.5 21V18.41L19.79 18.71C19.883 18.8037 19.9936 18.8781 20.1154 18.9289C20.2373 18.9797 20.368 19.0058 20.5 19.0058C20.632 19.0058 20.7627 18.9797 20.8846 18.9289C21.0064 18.8781 21.117 18.8037 21.21 18.71C21.3037 18.617 21.3781 18.5064 21.4289 18.3846C21.4797 18.2627 21.5058 18.132 21.5058 18C21.5058 17.868 21.4797 17.7373 21.4289 17.6154C21.3781 17.4936 21.3037 17.383 21.21 17.29ZM12.5 18C12.7652 18 13.0196 17.8946 13.2071 17.7071C13.3946 17.5196 13.5 17.2652 13.5 17C13.5 16.7348 13.3946 16.4804 13.2071 16.2929C13.0196 16.1054 12.7652 16 12.5 16H8.5C8.23478 16 7.98043 16.1054 7.79289 16.2929C7.60536 16.4804 7.5 16.7348 7.5 17C7.5 17.2652 7.60536 17.5196 7.79289 17.7071C7.98043 17.8946 8.23478 18 8.5 18H12.5Z" fill="#121212"/>
</svg>
