<svg width="86" height="86" viewBox="0 0 86 86" fill="none" xmlns="http://www.w3.org/2000/svg">
<path d="M19.0694 34.697C27.7184 19.3928 32.0429 11.7407 37.9771 9.77096C41.2417 8.68731 44.7583 8.68731 48.0229 9.77096C53.957 11.7407 58.2815 19.3928 66.9305 34.697C75.5795 50.0013 79.904 57.6534 78.6067 63.8884C77.8931 67.3185 76.1348 70.4298 73.5838 72.7763C68.947 77.0416 60.298 77.0416 43 77.0416C25.7019 77.0416 17.0529 77.0416 12.4161 72.7763C9.86516 70.4298 8.10686 67.3185 7.39318 63.8884C6.09591 57.6534 10.4204 50.0013 19.0694 34.697Z" stroke="#D92D20" stroke-width="1.5"/>
<path d="M42.9712 57.3332H43.0034" stroke="#D92D20" stroke-width="2" stroke-linecap="round" stroke-linejoin="round"/>
<path d="M43 46.5832L43 32.2499" stroke="#D92D20" stroke-width="1.5" stroke-linecap="round" stroke-linejoin="round"/>
</svg>
