<svg width="24" height="24" viewBox="0 0 24 24" fill="none" xmlns="http://www.w3.org/2000/svg">
<path d="M19.8999 12C19.8999 11.7381 19.7959 11.4869 19.6107 11.3017C19.4255 11.1166 19.1743 11.0125 18.9124 11.0125H11.4174L13.6886 8.75117C13.7807 8.65909 13.8537 8.54979 13.9035 8.42949C13.9534 8.30919 13.979 8.18026 13.979 8.05005C13.979 7.91984 13.9534 7.79091 13.9035 7.67061C13.8537 7.55031 13.7807 7.441 13.6886 7.34893C13.5965 7.25686 13.4872 7.18383 13.3669 7.134C13.2466 7.08417 13.1177 7.05852 12.9875 7.05852C12.8573 7.05852 12.7283 7.08417 12.608 7.134C12.4877 7.18383 12.3784 7.25686 12.2864 7.34893L8.33642 11.2989C8.24652 11.3928 8.17605 11.5035 8.12905 11.6248C8.03028 11.8652 8.03028 12.1348 8.12905 12.3752C8.17605 12.4965 8.24652 12.6072 8.33642 12.7011L12.2864 16.6511C12.3782 16.7436 12.4874 16.8171 12.6077 16.8672C12.7281 16.9174 12.8571 16.9432 12.9875 16.9432C13.1178 16.9432 13.2469 16.9174 13.3673 16.8672C13.4876 16.8171 13.5968 16.7436 13.6886 16.6511C13.7812 16.5593 13.8546 16.4501 13.9048 16.3297C13.9549 16.2094 13.9807 16.0803 13.9807 15.95C13.9807 15.8196 13.9549 15.6905 13.9048 15.5702C13.8546 15.4499 13.7812 15.3406 13.6886 15.2488L11.4174 12.9875H18.9124C19.1743 12.9875 19.4255 12.8834 19.6107 12.6983C19.7959 12.5131 19.8999 12.2619 19.8999 12ZM16.9374 2.12512H7.06256C6.27687 2.12512 5.52335 2.43724 4.96778 2.99281C4.41221 3.54838 4.1001 4.30189 4.1001 5.08759V18.9124C4.1001 19.6981 4.41221 20.4516 4.96778 21.0072C5.52335 21.5628 6.27687 21.8749 7.06256 21.8749H16.9374C17.7231 21.8749 18.4766 21.5628 19.0322 21.0072C19.5878 20.4516 19.8999 19.6981 19.8999 18.9124V15.95C19.8999 15.6881 19.7959 15.4369 19.6107 15.2517C19.4255 15.0665 19.1743 14.9625 18.9124 14.9625C18.6505 14.9625 18.3993 15.0665 18.2142 15.2517C18.029 15.4369 17.9249 15.6881 17.9249 15.95V18.9124C17.9249 19.1743 17.8209 19.4255 17.6357 19.6107C17.4505 19.7959 17.1993 19.8999 16.9374 19.8999H7.06256C6.80066 19.8999 6.54949 19.7959 6.3643 19.6107C6.17911 19.4255 6.07507 19.1743 6.07507 18.9124V5.08759C6.07507 4.82569 6.17911 4.57452 6.3643 4.38933C6.54949 4.20414 6.80066 4.1001 7.06256 4.1001H16.9374C17.1993 4.1001 17.4505 4.20414 17.6357 4.38933C17.8209 4.57452 17.9249 4.82569 17.9249 5.08759V8.05005C17.9249 8.31195 18.029 8.56312 18.2142 8.74831C18.3993 8.9335 18.6505 9.03754 18.9124 9.03754C19.1743 9.03754 19.4255 8.9335 19.6107 8.74831C19.7959 8.56312 19.8999 8.31195 19.8999 8.05005V5.08759C19.8999 4.30189 19.5878 3.54838 19.0322 2.99281C18.4766 2.43724 17.7231 2.12512 16.9374 2.12512Z" fill="white"/>
</svg>
