<svg width="34" height="34" viewBox="0 0 34 34" fill="none" xmlns="http://www.w3.org/2000/svg">
<path d="M8.46362 26.5815H6.02868C5.22299 26.5815 4.48882 26.2437 3.95467 25.6994C3.42164 25.1585 3.09088 24.4077 3.09088 23.5815V12.4444C3.09088 11.6182 3.42052 10.8674 3.95244 10.3253L4.00831 10.274C4.52458 9.77189 5.21853 9.45923 5.98062 9.4467V6.78678C5.98062 6.30297 6.36504 5.91041 6.83883 5.91041H8.46362V4.73965C8.46362 4.25584 8.84804 3.86328 9.32183 3.86328H24.6803C25.1541 3.86328 25.5386 4.25584 25.5386 4.73965V5.91041H27.1622C27.636 5.91041 28.0204 6.30297 28.0204 6.78678V9.4467C28.8105 9.45925 29.5268 9.79359 30.0475 10.3265C30.5794 10.8697 30.9091 11.6205 30.9091 12.4455V23.5827C30.9091 24.4088 30.5794 25.1597 30.0475 25.7028L29.9916 25.7553C29.4631 26.2677 28.7513 26.5837 27.9724 26.5837H25.5386V29.2596C25.5386 29.7435 25.1541 30.136 24.6803 30.136H9.32183C8.84804 30.136 8.46362 29.7435 8.46362 29.2596V26.5815ZM7.69704 9.44441H8.46362V7.662H7.69704V9.44441ZM25.5395 9.44441H26.305V7.662H25.5395V9.44441ZM7.00646 12.1009C7.62666 12.1009 8.12952 12.6144 8.12952 13.2477C8.12952 13.8822 7.62666 14.3957 7.00646 14.3957C6.38515 14.3957 5.88229 13.8822 5.88229 13.2477C5.88229 12.6144 6.38515 12.1009 7.00646 12.1009ZM11.7947 27.0082C11.3209 27.0082 10.9365 26.6156 10.9365 26.1318C10.9365 25.648 11.3209 25.2555 11.7947 25.2555H22.2082C22.682 25.2555 23.0664 25.648 23.0664 26.1318C23.0664 26.6156 22.682 27.0082 22.2082 27.0082H11.7947ZM11.7947 23.7767C11.3209 23.7767 10.9365 23.3842 10.9365 22.9004C10.9365 22.4166 11.3209 22.024 11.7947 22.024H22.2082C22.682 22.024 23.0664 22.4166 23.0664 22.9004C23.0664 23.3842 22.682 23.7767 22.2082 23.7767H11.7947ZM25.5395 24.83H27.9733C28.2929 24.83 28.5846 24.7045 28.8014 24.5002L28.836 24.4637C29.0573 24.2378 29.1947 23.9251 29.1947 23.5828V12.4456C29.1947 12.1033 29.0572 11.7918 28.836 11.5658C28.6147 11.3399 28.3085 11.1995 27.9744 11.1995H26.4145V12.7355C26.4145 13.2832 26.1943 13.7841 25.8379 14.147C25.4847 14.511 24.9942 14.7358 24.4545 14.7358H19.8427C19.303 14.7358 18.8124 14.511 18.4582 14.1493L18.4001 14.0842C18.0794 13.7271 17.8827 13.2524 17.8827 12.7354V11.2007H6.0297C5.7101 11.2007 5.41845 11.3273 5.20055 11.5316L5.16815 11.567C4.94689 11.7929 4.80944 12.1056 4.80944 12.4467V23.5839C4.80944 23.9262 4.94689 24.2389 5.16815 24.4648C5.38717 24.693 5.69334 24.8322 6.0297 24.8322H8.46464V23.8851H6.83985C6.36606 23.8851 5.98164 23.4926 5.98164 23.0088V19.7761C5.98164 19.2923 6.36606 18.8998 6.83985 18.8998H27.1631C27.6369 18.8998 28.0213 19.2923 28.0213 19.7761V23.0088C28.0213 23.4926 27.6369 23.8851 27.1631 23.8851H25.5394V24.8322L25.5395 24.83ZM10.181 28.3822H23.8231V20.6512H10.181V28.3834V28.3822ZM8.46456 22.1302V20.6502H7.69798V22.1302H8.46456ZM25.5395 20.6502V22.1302H26.305V20.6502H25.5395ZM24.6969 11.1974H19.5992V12.7322C19.5992 12.7904 19.6182 12.844 19.6495 12.8851L19.6718 12.9068C19.7165 12.9524 19.7768 12.9798 19.8428 12.9798H24.4545C24.5204 12.9798 24.5819 12.9513 24.6255 12.9068C24.6713 12.8646 24.697 12.8018 24.697 12.7322L24.6969 11.1974ZM10.1812 9.44468H23.8233V5.61525H10.1812V9.44468Z" fill="black"/>
</svg>
