<svg width="34" height="34" viewBox="0 0 34 34" fill="none" xmlns="http://www.w3.org/2000/svg">
<path d="M28.8466 9.99212L22.0493 3.41269C21.636 3.01055 21.0719 2.78156 20.4911 2.78156L7.68966 2.74805C6.13696 2.74805 4.87469 3.99914 4.87469 5.54067V28.5407C4.87469 30.0543 6.17606 31.339 7.71759 31.339H26.6516C28.1652 31.339 29.394 30.0823 29.394 28.5352V11.327C29.394 10.8076 29.1985 10.3328 28.8466 9.99212ZM22.0214 6.49575L25.5345 9.89158H22.6302C22.3063 9.89158 22.0214 9.64025 22.0214 9.3554V6.49575ZM26.6516 29.1049H7.71759C7.40481 29.1049 7.1088 28.8312 7.1088 28.5352V5.54067C7.1088 5.24465 7.38247 4.98215 7.68966 4.98215L19.7873 5.01566V9.3554C19.7873 10.8802 21.0608 12.1257 22.6302 12.1257H27.1599V28.5352C27.1599 28.8144 26.97 29.1049 26.6516 29.1049Z" fill="black"/>
<path d="M9.73383 17.6561C9.73383 18.2705 10.2365 18.7732 10.8509 18.7732H20.6251C21.2394 18.7732 21.7421 18.2705 21.7421 17.6561C21.7421 17.0417 21.2394 16.5391 20.6251 16.5391H10.8509C10.2365 16.5391 9.73383 17.0417 9.73383 17.6561Z" fill="black"/>
<path d="M10.7951 14.3044H17.274C17.8884 14.3044 18.391 13.8017 18.391 13.1874C18.391 12.573 17.8884 12.0703 17.274 12.0703H10.7951C10.1807 12.0703 9.67804 12.573 9.67804 13.1874C9.67804 13.8017 10.1807 14.3044 10.7951 14.3044Z" fill="black"/>
<path d="M23.4177 21.0059H10.8509C10.2365 21.0059 9.73383 21.5085 9.73383 22.1229C9.73383 22.7373 10.2365 23.24 10.8509 23.24H23.4177C24.0321 23.24 24.5347 22.7373 24.5347 22.1229C24.5347 21.5085 24.0321 21.0059 23.4177 21.0059Z" fill="black"/>
</svg>
