<svg width="34" height="34" viewBox="0 0 34 34" fill="none" xmlns="http://www.w3.org/2000/svg">
<path fill-rule="evenodd" clip-rule="evenodd" d="M25.0101 22.9864L31.2748 17.5054C31.7699 17.0721 31.8201 16.3195 31.3869 15.8244C31.352 15.7845 31.3146 15.7471 31.2748 15.7122L24.9718 10.1977C24.4985 9.78357 23.7848 9.80869 23.3418 10.255L23.3357 10.2612C22.9187 10.6813 22.9213 11.3599 23.3415 11.7769C23.3543 11.7896 23.3673 11.802 23.3807 11.814L27.3977 15.4175H11.4327C10.7748 15.4175 10.2414 15.9509 10.2414 16.6088C10.2414 17.2667 10.7748 17.8001 11.4327 17.8001H27.3977L23.4345 21.2335C22.9527 21.6509 22.9005 22.3799 23.3179 22.8617C23.3238 22.8685 23.3297 22.8752 23.3357 22.8818L23.3436 22.8906C23.7802 23.3714 24.5213 23.414 25.0101 22.9864ZM20.9673 8.2748C20.3091 8.2748 19.7755 7.74123 19.7755 7.08304V4.70094H6.66569C6.00776 4.70094 5.4744 5.23429 5.4744 5.89222V27.3354C5.4744 27.9933 6.00776 28.5267 6.66569 28.5267H19.7755V26.1446C19.7755 25.4864 20.3091 24.9528 20.9673 24.9528C21.6254 24.9528 22.159 25.4864 22.159 26.1446V28.5267C22.1515 29.718 20.9602 30.9093 19.7755 30.9093H5.4744C4.28264 30.9093 3.09088 29.718 3.09088 28.5267V4.70094C3.09088 3.50965 4.28264 2.31836 5.4744 2.31836H19.7689C20.9602 2.31836 22.1515 3.53426 22.1515 4.70094L22.1565 7.08304C22.1579 7.73984 21.6266 8.27341 20.9698 8.2748H20.9673Z" fill="black"/>
</svg>
