<svg width="20" height="20" viewBox="0 0 20 20" fill="none" xmlns="http://www.w3.org/2000/svg">
<path d="M17.8125 10.0002C17.8125 10.2489 17.7137 10.4873 17.5379 10.6632C17.3621 10.839 17.1236 10.9377 16.875 10.9377H10.9375V16.8752C10.9375 17.1239 10.8387 17.3623 10.6629 17.5382C10.4871 17.714 10.2486 17.8127 10 17.8127C9.75136 17.8127 9.5129 17.714 9.33709 17.5382C9.16127 17.3623 9.0625 17.1239 9.0625 16.8752V10.9377H3.125C2.87636 10.9377 2.6379 10.839 2.46209 10.6632C2.28627 10.4873 2.1875 10.2489 2.1875 10.0002C2.1875 9.7516 2.28627 9.51315 2.46209 9.33733C2.6379 9.16152 2.87636 9.06274 3.125 9.06274H9.0625V3.12524C9.0625 2.8766 9.16127 2.63815 9.33709 2.46233C9.5129 2.28652 9.75136 2.18774 10 2.18774C10.2486 2.18774 10.4871 2.28652 10.6629 2.46233C10.8387 2.63815 10.9375 2.8766 10.9375 3.12524V9.06274H16.875C17.1236 9.06274 17.3621 9.16152 17.5379 9.33733C17.7137 9.51315 17.8125 9.7516 17.8125 10.0002Z" fill="black"/>
</svg>
