<svg width="20" height="20" viewBox="0 0 20 20" fill="none" xmlns="http://www.w3.org/2000/svg">
<path d="M17.8125 10.0001C17.8125 10.2488 17.7137 10.4872 17.5379 10.663C17.3621 10.8388 17.1236 10.9376 16.875 10.9376H10.9375V16.8751C10.9375 17.1238 10.8387 17.3622 10.6629 17.538C10.4871 17.7138 10.2486 17.8126 10 17.8126C9.75136 17.8126 9.5129 17.7138 9.33709 17.538C9.16127 17.3622 9.0625 17.1238 9.0625 16.8751V10.9376H3.125C2.87636 10.9376 2.6379 10.8388 2.46209 10.663C2.28627 10.4872 2.1875 10.2488 2.1875 10.0001C2.1875 9.75148 2.28627 9.51302 2.46209 9.33721C2.6379 9.16139 2.87636 9.06262 3.125 9.06262H9.0625V3.12512C9.0625 2.87648 9.16127 2.63802 9.33709 2.46221C9.5129 2.28639 9.75136 2.18762 10 2.18762C10.2486 2.18762 10.4871 2.28639 10.6629 2.46221C10.8387 2.63802 10.9375 2.87648 10.9375 3.12512V9.06262H16.875C17.1236 9.06262 17.3621 9.16139 17.5379 9.33721C17.7137 9.51302 17.8125 9.75148 17.8125 10.0001Z" fill="black"/>
</svg>
