<svg width="24" height="25" viewBox="0 0 24 25" fill="none" xmlns="http://www.w3.org/2000/svg">
<path d="M14.2959 4.9541L21.0459 11.7041C21.1508 11.8086 21.234 11.9328 21.2908 12.0696C21.3476 12.2063 21.3768 12.3529 21.3768 12.501C21.3768 12.649 21.3476 12.7957 21.2908 12.9324C21.234 13.0691 21.1508 13.1933 21.0459 13.2979L14.2959 20.0479C14.0846 20.2592 13.7979 20.3779 13.4991 20.3779C13.2002 20.3779 12.9135 20.2592 12.7022 20.0479C12.4908 19.8365 12.3721 19.5499 12.3721 19.251C12.3721 18.9521 12.4908 18.6654 12.7022 18.4541L17.5313 13.625L3.75 13.625C3.45163 13.625 3.16548 13.5065 2.9545 13.2955C2.74353 13.0846 2.625 12.7984 2.625 12.5C2.625 12.2017 2.74353 11.9155 2.95451 11.7045C3.16548 11.4936 3.45163 11.375 3.75 11.375L17.5313 11.375L12.7012 6.54598C12.4899 6.33464 12.3712 6.04799 12.3712 5.7491C12.3712 5.45022 12.4899 5.16357 12.7012 4.95223C12.9126 4.74089 13.1992 4.62215 13.4981 4.62215C13.797 4.62215 14.0837 4.74089 14.295 4.95223L14.2959 4.9541Z" fill="white"/>
</svg>
