<svg width="78" height="104" viewBox="0 0 78 104" fill="none" xmlns="http://www.w3.org/2000/svg">
<path d="M28.6 104C20.6267 104 13.8667 101.227 8.32 95.68C2.77333 90.1333 0 83.3733 0 75.4V20.8C0 15.08 2.03667 10.1833 6.11 6.11C10.1833 2.03667 15.08 0 20.8 0C26.52 0 31.4167 2.03667 35.49 6.11C39.5633 10.1833 41.6 15.08 41.6 20.8V62.4H33.8V20.8C33.8 17.16 32.5433 14.0833 30.03 11.57C27.5167 9.05666 24.44 7.8 20.8 7.8C17.16 7.8 14.0833 9.05666 11.57 11.57C9.05667 14.0833 7.8 17.16 7.8 20.8V75.4C7.8 81.12 9.83667 86.0166 13.91 90.09C17.9833 94.1633 22.88 96.2 28.6 96.2C31.1133 96.2 33.4759 95.7874 35.6876 94.9624C37.8993 94.1373 39.8701 92.9898 41.6 91.52V100.88C39.6067 101.833 37.5267 102.592 35.36 103.158C33.1933 103.723 30.94 104.003 28.6 104ZM52 83.2H41.6C40.1267 83.2 38.8908 82.7008 37.8924 81.7024C36.894 80.704 36.3965 79.4698 36.4 78C36.4 76.5266 36.8992 75.2908 37.8976 74.2924C38.896 73.294 40.1301 72.7965 41.6 72.8H52V62.4C52 60.9266 52.4992 59.6908 53.4976 58.6924C54.496 57.694 55.7301 57.1965 57.2 57.2C58.6733 57.2 59.9092 57.6992 60.9076 58.6976C61.906 59.696 62.4035 60.9301 62.4 62.4V72.8H72.8C74.2733 72.8 75.5092 73.2992 76.5076 74.2976C77.506 75.296 78.0034 76.5301 78 78C78 79.4733 77.5008 80.7092 76.5024 81.7076C75.504 82.706 74.2699 83.2034 72.8 83.2H62.4V93.6C62.4 95.0733 61.9008 96.3092 60.9024 97.3076C59.904 98.306 58.6699 98.8034 57.2 98.8C55.7267 98.8 54.4908 98.3008 53.4924 97.3024C52.494 96.304 51.9965 95.0698 52 93.6V83.2ZM28.6 75.4V83.2C24.96 83.2 21.8833 81.9433 19.37 79.43C16.8567 76.9166 15.6 73.84 15.6 70.2V24.7C15.6 23.5733 15.9692 22.6425 16.7076 21.9076C17.446 21.1727 18.3768 20.8035 19.5 20.8C20.6267 20.8 21.5575 21.1692 22.2924 21.9076C23.0273 22.646 23.3965 23.5768 23.4 24.7V70.2C23.4 71.6733 23.8992 72.9092 24.8976 73.9076C25.896 74.906 27.1301 75.4034 28.6 75.4ZM49.4 46.8V24.7C49.4 23.5733 49.7692 22.6425 50.5076 21.9076C51.246 21.1727 52.1768 20.8035 53.3 20.8C54.4267 20.8 55.3575 21.1692 56.0924 21.9076C56.8273 22.646 57.1965 23.5768 57.2 24.7V46.8H49.4Z" fill="#012A6C"/>
</svg>
