<svg width="34" height="34" viewBox="0 0 34 34" fill="none" xmlns="http://www.w3.org/2000/svg">
<path d="M28.8466 9.99242L22.0493 3.413C21.636 3.01086 21.0719 2.78186 20.4911 2.78186L7.68966 2.74835C6.13696 2.74835 4.87469 3.99945 4.87469 5.54098V28.541C4.87469 30.0547 6.17606 31.3393 7.71759 31.3393H26.6516C28.1652 31.3393 29.394 30.0826 29.394 28.5355V11.3273C29.394 10.8079 29.1985 10.3331 28.8466 9.99242ZM22.0214 6.49606L25.5345 9.89189H22.6302C22.3063 9.89189 22.0214 9.64055 22.0214 9.35571V6.49606ZM26.6516 29.1052H7.71759C7.40481 29.1052 7.1088 28.8315 7.1088 28.5355V5.54098C7.1088 5.24496 7.38247 4.98245 7.68966 4.98245L19.7873 5.01596V9.35571C19.7873 10.8805 21.0608 12.126 22.6302 12.126H27.1599V28.5355C27.1599 28.8147 26.97 29.1052 26.6516 29.1052Z" fill="black"/>
<path d="M9.73383 17.6554C9.73383 18.2698 10.2365 18.7725 10.8509 18.7725H20.6251C21.2394 18.7725 21.7421 18.2698 21.7421 17.6554C21.7421 17.0411 21.2394 16.5384 20.6251 16.5384H10.8509C10.2365 16.5384 9.73383 17.0411 9.73383 17.6554Z" fill="black"/>
<path d="M10.7951 14.3042H17.274C17.8884 14.3042 18.391 13.8016 18.391 13.1872C18.391 12.5728 17.8884 12.0701 17.274 12.0701H10.7951C10.1807 12.0701 9.67804 12.5728 9.67804 13.1872C9.67804 13.8016 10.1807 14.3042 10.7951 14.3042Z" fill="black"/>
<path d="M23.4177 21.0065H10.8509C10.2365 21.0065 9.73383 21.5092 9.73383 22.1236C9.73383 22.738 10.2365 23.2406 10.8509 23.2406H23.4177C24.0321 23.2406 24.5347 22.738 24.5347 22.1236C24.5347 21.5092 24.0321 21.0065 23.4177 21.0065Z" fill="black"/>
</svg>
