<svg width="30" height="31" viewBox="0 0 30 31" fill="none" xmlns="http://www.w3.org/2000/svg">
<path d="M27.04 26.1156L22.4051 21.4944C23.9005 19.5892 24.7119 17.2366 24.7089 14.8147C24.7089 12.6578 24.0693 10.5493 22.871 8.75589C21.6727 6.96247 19.9694 5.56468 17.9767 4.73926C15.984 3.91384 13.7912 3.69788 11.6757 4.11867C9.56027 4.53947 7.61708 5.57812 6.09191 7.10329C4.56674 8.62846 3.52808 10.5717 3.10729 12.6871C2.68649 14.8026 2.90246 16.9953 3.72788 18.9881C4.5533 20.9808 5.95109 22.684 7.7445 23.8824C9.53792 25.0807 11.6464 25.7203 13.8033 25.7203C16.2252 25.7233 18.5779 24.9119 20.483 23.4165L25.1042 28.0513C25.2309 28.1791 25.3817 28.2805 25.5478 28.3497C25.714 28.4189 25.8921 28.4546 26.0721 28.4546C26.252 28.4546 26.4302 28.4189 26.5963 28.3497C26.7625 28.2805 26.9132 28.1791 27.04 28.0513C27.1677 27.9246 27.2691 27.7738 27.3384 27.6077C27.4076 27.4416 27.4432 27.2634 27.4432 27.0835C27.4432 26.9035 27.4076 26.7253 27.3384 26.5592C27.2691 26.3931 27.1677 26.2423 27.04 26.1156ZM5.62413 14.8147C5.62413 13.197 6.10384 11.6156 7.00258 10.2706C7.90132 8.92553 9.17873 7.87718 10.6733 7.25812C12.1678 6.63906 13.8124 6.47708 15.399 6.79268C16.9856 7.10827 18.443 7.88727 19.5869 9.03114C20.7308 10.175 21.5097 11.6324 21.8253 13.219C22.1409 14.8056 21.979 16.4502 21.3599 17.9447C20.7408 19.4393 19.6925 20.7167 18.3474 21.6154C17.0024 22.5142 15.421 22.9939 13.8033 22.9939C11.6341 22.9939 9.55366 22.1321 8.01976 20.5983C6.48587 19.0644 5.62413 16.984 5.62413 14.8147Z" fill="black"/>
</svg>
