<svg width="34" height="34" viewBox="0 0 34 34" fill="none" xmlns="http://www.w3.org/2000/svg">
<path d="M28.8466 9.99236L22.0493 3.41294C21.636 3.0108 21.0719 2.7818 20.4911 2.7818L7.68966 2.74829C6.13696 2.74829 4.87469 3.99939 4.87469 5.54092V28.541C4.87469 30.0546 6.17606 31.3392 7.71759 31.3392H26.6516C28.1652 31.3392 29.394 30.0825 29.394 28.5354V11.3272C29.394 10.8078 29.1985 10.3331 28.8466 9.99236ZM22.0214 6.496L25.5345 9.89183H22.6302C22.3063 9.89183 22.0214 9.64049 22.0214 9.35564V6.496ZM26.6516 29.1051H7.71759C7.40481 29.1051 7.1088 28.8314 7.1088 28.5354V5.54092C7.1088 5.2449 7.38247 4.98239 7.68966 4.98239L19.7873 5.0159V9.35564C19.7873 10.8804 21.0608 12.1259 22.6302 12.1259H27.1599V28.5354C27.1599 28.8147 26.97 29.1051 26.6516 29.1051Z" fill="black"/>
<path d="M9.73383 17.6554C9.73383 18.2698 10.2365 18.7724 10.8509 18.7724H20.6251C21.2394 18.7724 21.7421 18.2698 21.7421 17.6554C21.7421 17.041 21.2394 16.5383 20.6251 16.5383H10.8509C10.2365 16.5383 9.73383 17.041 9.73383 17.6554Z" fill="black"/>
<path d="M10.7951 14.3042H17.274C17.8884 14.3042 18.391 13.8015 18.391 13.1871C18.391 12.5727 17.8884 12.0701 17.274 12.0701H10.7951C10.1807 12.0701 9.67804 12.5727 9.67804 13.1871C9.67804 13.8015 10.1807 14.3042 10.7951 14.3042Z" fill="black"/>
<path d="M23.4177 21.0065H10.8509C10.2365 21.0065 9.73383 21.5091 9.73383 22.1235C9.73383 22.7379 10.2365 23.2406 10.8509 23.2406H23.4177C24.0321 23.2406 24.5347 22.7379 24.5347 22.1235C24.5347 21.5091 24.0321 21.0065 23.4177 21.0065Z" fill="black"/>
</svg>
