<svg width="34" height="34" viewBox="0 0 34 34" fill="none" xmlns="http://www.w3.org/2000/svg">
<path d="M8.46362 26.582H6.02868C5.22299 26.582 4.48882 26.2442 3.95467 25.6999C3.42164 25.159 3.09088 24.4082 3.09088 23.582V12.4449C3.09088 11.6187 3.42052 10.8679 3.95244 10.3258L4.00831 10.2745C4.52458 9.77238 5.21853 9.45972 5.98062 9.44719V6.78727C5.98062 6.30346 6.36504 5.9109 6.83883 5.9109H8.46362V4.74014C8.46362 4.25632 8.84804 3.86377 9.32183 3.86377H24.6803C25.1541 3.86377 25.5386 4.25632 25.5386 4.74014V5.9109H27.1622C27.636 5.9109 28.0204 6.30346 28.0204 6.78727V9.44719C28.8105 9.45974 29.5268 9.79408 30.0475 10.327C30.5794 10.8701 30.9091 11.621 30.9091 12.446V23.5831C30.9091 24.4093 30.5794 25.1601 30.0475 25.7033L29.9916 25.7558C29.4631 26.2682 28.7513 26.5842 27.9724 26.5842H25.5386V29.2601C25.5386 29.7439 25.1541 30.1365 24.6803 30.1365H9.32183C8.84804 30.1365 8.46362 29.7439 8.46362 29.2601V26.582ZM7.69704 9.4449H8.46362V7.66249H7.69704V9.4449ZM25.5395 9.4449H26.305V7.66249H25.5395V9.4449ZM7.00646 12.1014C7.62666 12.1014 8.12952 12.6149 8.12952 13.2482C8.12952 13.8827 7.62666 14.3962 7.00646 14.3962C6.38515 14.3962 5.88229 13.8827 5.88229 13.2482C5.88229 12.6149 6.38515 12.1014 7.00646 12.1014ZM11.7947 27.0087C11.3209 27.0087 10.9365 26.6161 10.9365 26.1323C10.9365 25.6485 11.3209 25.256 11.7947 25.256H22.2082C22.682 25.256 23.0664 25.6485 23.0664 26.1323C23.0664 26.6161 22.682 27.0087 22.2082 27.0087H11.7947ZM11.7947 23.7772C11.3209 23.7772 10.9365 23.3847 10.9365 22.9009C10.9365 22.4171 11.3209 22.0245 11.7947 22.0245H22.2082C22.682 22.0245 23.0664 22.4171 23.0664 22.9009C23.0664 23.3847 22.682 23.7772 22.2082 23.7772H11.7947ZM25.5395 24.8305H27.9733C28.2929 24.8305 28.5846 24.705 28.8014 24.5007L28.836 24.4642C29.0573 24.2382 29.1947 23.9256 29.1947 23.5833V12.4461C29.1947 12.1038 29.0572 11.7922 28.836 11.5663C28.6147 11.3404 28.3085 11.2 27.9744 11.2H26.4145V12.7359C26.4145 13.2837 26.1943 13.7846 25.8379 14.1475C25.4847 14.5115 24.9942 14.7363 24.4545 14.7363H19.8427C19.303 14.7363 18.8124 14.5115 18.4582 14.1498L18.4001 14.0847C18.0794 13.7275 17.8827 13.2528 17.8827 12.7359V11.2012H6.0297C5.7101 11.2012 5.41845 11.3278 5.20055 11.5321L5.16815 11.5674C4.94689 11.7934 4.80944 12.1061 4.80944 12.4472V23.5844C4.80944 23.9267 4.94689 24.2394 5.16815 24.4653C5.38717 24.6935 5.69334 24.8327 6.0297 24.8327H8.46464V23.8856H6.83985C6.36606 23.8856 5.98164 23.4931 5.98164 23.0092V19.7766C5.98164 19.2928 6.36606 18.9003 6.83985 18.9003H27.1631C27.6369 18.9003 28.0213 19.2928 28.0213 19.7766V23.0092C28.0213 23.4931 27.6369 23.8856 27.1631 23.8856H25.5394V24.8327L25.5395 24.8305ZM10.181 28.3827H23.8231V20.6517H10.181V28.3839V28.3827ZM8.46456 22.1307V20.6507H7.69798V22.1307H8.46456ZM25.5395 20.6507V22.1307H26.305V20.6507H25.5395ZM24.6969 11.1979H19.5992V12.7327C19.5992 12.7909 19.6182 12.8445 19.6495 12.8856L19.6718 12.9073C19.7165 12.9529 19.7768 12.9803 19.8428 12.9803H24.4545C24.5204 12.9803 24.5819 12.9518 24.6255 12.9073C24.6713 12.865 24.697 12.8023 24.697 12.7327L24.6969 11.1979ZM10.1812 9.44517H23.8233V5.61574H10.1812V9.44517Z" fill="#FCA0A6"/>
</svg>
