<svg width="34" height="34" viewBox="0 0 34 34" fill="none" xmlns="http://www.w3.org/2000/svg">
<path d="M17 17.3864C18.3373 17.3864 19.6445 16.9898 20.7564 16.2469C21.8683 15.5039 22.7349 14.448 23.2467 13.2125C23.7584 11.977 23.8923 10.6175 23.6315 9.30594C23.3706 7.99436 22.7266 6.7896 21.781 5.84401C20.8354 4.89841 19.6307 4.25446 18.3191 3.99357C17.0075 3.73268 15.648 3.86658 14.4125 4.37833C13.1771 4.89008 12.1211 5.7567 11.3781 6.8686C10.6352 7.9805 10.2386 9.28774 10.2386 10.625C10.2386 12.4182 10.951 14.138 12.219 15.406C13.487 16.674 15.2068 17.3864 17 17.3864ZM17 5.79547C17.9552 5.79547 18.8889 6.07872 19.6832 6.60939C20.4774 7.14007 21.0964 7.89434 21.4619 8.77683C21.8275 9.65931 21.9231 10.6304 21.7368 11.5672C21.5504 12.5041 21.0904 13.3646 20.415 14.04C19.7396 14.7154 18.879 15.1754 17.9422 15.3618C17.0054 15.5481 16.0343 15.4525 15.1518 15.0869C14.2693 14.7214 13.5151 14.1024 12.9844 13.3082C12.4537 12.514 12.1705 11.5802 12.1705 10.625C12.1705 9.34414 12.6793 8.11573 13.585 7.21001C14.4907 6.30429 15.7191 5.79547 17 5.79547Z" fill="black"/>
<path d="M19.8978 19.3182H14.1023C11.7967 19.3182 9.58558 20.2341 7.95529 21.8644C6.325 23.4946 5.40912 25.7058 5.40912 28.0114C5.40912 28.7799 5.71441 29.5169 6.25784 30.0604C6.80127 30.6038 7.53832 30.9091 8.30685 30.9091H25.6932C26.4617 30.9091 27.1988 30.6038 27.7422 30.0604C28.2856 29.5169 28.5909 28.7799 28.5909 28.0114C28.5909 25.7058 27.6751 23.4946 26.0448 21.8644C24.4145 20.2341 22.2033 19.3182 19.8978 19.3182ZM25.6932 28.9773H8.30685C8.05067 28.9773 7.80499 28.8755 7.62385 28.6944C7.4427 28.5132 7.34094 28.2675 7.34094 28.0114C7.34094 26.2181 8.05329 24.4984 9.3213 23.2304C10.5893 21.9624 12.3091 21.25 14.1023 21.25H19.8978C21.691 21.25 23.4108 21.9624 24.6788 23.2304C25.9468 24.4984 26.6591 26.2181 26.6591 28.0114C26.6591 28.2675 26.5574 28.5132 26.3762 28.6944C26.1951 28.8755 25.9494 28.9773 25.6932 28.9773Z" fill="black"/>
</svg>
