<svg width="34" height="34" viewBox="0 0 34 34" fill="none" xmlns="http://www.w3.org/2000/svg">
<path fill-rule="evenodd" clip-rule="evenodd" d="M25.01 22.9861L31.2747 17.5051C31.7699 17.0719 31.82 16.3193 31.3868 15.8241C31.352 15.7843 31.3145 15.7468 31.2747 15.712L24.9717 10.1974C24.4984 9.78333 23.7848 9.80845 23.3418 10.2548L23.3357 10.2609C22.9187 10.6811 22.9213 11.3597 23.3414 11.7767C23.3542 11.7894 23.3672 11.8018 23.3807 11.8138L27.3976 15.4173H11.4327C10.7747 15.4173 10.2414 15.9506 10.2414 16.6085C10.2414 17.2665 10.7747 17.7998 11.4327 17.7998H27.3976L23.4345 21.2333C22.9527 21.6507 22.9004 22.3797 23.3178 22.8615C23.3237 22.8683 23.3296 22.8749 23.3357 22.8816L23.3436 22.8903C23.7801 23.3711 24.5213 23.4137 25.01 22.9861ZM20.9672 8.27455C20.309 8.27455 19.7755 7.74099 19.7755 7.08279V4.70069H6.66563C6.0077 4.70069 5.47434 5.23405 5.47434 5.89198V27.3352C5.47434 27.9931 6.0077 28.5264 6.66563 28.5264H19.7755V26.1443C19.7755 25.4862 20.309 24.9526 20.9672 24.9526C21.6254 24.9526 22.159 25.4862 22.159 26.1443V28.5264C22.1514 29.7177 20.9602 30.909 19.7755 30.909H5.47434C4.28258 30.909 3.09082 29.7177 3.09082 28.5264V4.70069C3.09082 3.5094 4.28258 2.31812 5.47434 2.31812H19.7688C20.9601 2.31812 22.1514 3.53402 22.1514 4.70069L22.1564 7.08279C22.1578 7.7396 21.6265 8.27317 20.9697 8.27455H20.9672Z" fill="black"/>
</svg>
