<svg width="30" height="31" viewBox="0 0 30 31" fill="none" xmlns="http://www.w3.org/2000/svg">
<path d="M27.0399 26.1158L22.4051 21.4946C23.9005 19.5894 24.7119 17.2368 24.7089 14.8149C24.7089 12.658 24.0693 10.5495 22.8709 8.7561C21.6726 6.96269 19.9694 5.56489 17.9767 4.73947C15.9839 3.91406 13.7912 3.69809 11.6757 4.11888C9.56024 4.53968 7.61705 5.57833 6.09188 7.10351C4.56671 8.62868 3.52805 10.5719 3.10726 12.6873C2.68646 14.8028 2.90243 16.9956 3.72785 18.9883C4.55326 20.981 5.95106 22.6842 7.74447 23.8826C9.53789 25.0809 11.6464 25.7205 13.8033 25.7205C16.2252 25.7235 18.5778 24.9121 20.483 23.4167L25.1042 28.0516C25.2309 28.1793 25.3817 28.2807 25.5478 28.3499C25.7139 28.4192 25.8921 28.4548 26.0721 28.4548C26.252 28.4548 26.4302 28.4192 26.5963 28.3499C26.7624 28.2807 26.9132 28.1793 27.0399 28.0516C27.1677 27.9248 27.2691 27.7741 27.3383 27.6079C27.4075 27.4418 27.4432 27.2636 27.4432 27.0837C27.4432 26.9037 27.4075 26.7256 27.3383 26.5594C27.2691 26.3933 27.1677 26.2425 27.0399 26.1158ZM5.6241 14.8149C5.6241 13.1972 6.1038 11.6159 7.00254 10.2708C7.90128 8.92574 9.1787 7.8774 10.6732 7.25833C12.1678 6.63927 13.8124 6.4773 15.399 6.79289C16.9856 7.10849 18.443 7.88748 19.5868 9.03136C20.7307 10.1752 21.5097 11.6326 21.8253 13.2192C22.1409 14.8058 21.9789 16.4504 21.3599 17.945C20.7408 19.4395 19.6925 20.7169 18.3474 21.6157C17.0023 22.5144 15.421 22.9941 13.8033 22.9941C11.634 22.9941 9.55363 22.1324 8.01973 20.5985C6.48584 19.0646 5.6241 16.9842 5.6241 14.8149Z" fill="black"/>
</svg>
