<svg width="34" height="34" viewBox="0 0 34 34" fill="none" xmlns="http://www.w3.org/2000/svg">
<path d="M28.8464 9.99239L22.0492 3.41297C21.6359 3.01083 21.0717 2.78183 20.4909 2.78183L7.68948 2.74832C6.13678 2.74832 4.87451 3.99942 4.87451 5.54095V28.541C4.87451 30.0546 6.17588 31.3392 7.71741 31.3392H26.6514C28.165 31.3392 29.3938 30.0825 29.3938 28.5354V11.3273C29.3938 10.8078 29.1983 10.3331 28.8464 9.99239ZM22.0212 6.49603L25.5344 9.89186H22.63C22.3061 9.89186 22.0212 9.64052 22.0212 9.35568V6.49603ZM26.6514 29.1051H7.71741C7.40463 29.1051 7.10861 28.8314 7.10861 28.5354V5.54095C7.10861 5.24493 7.38229 4.98242 7.68948 4.98242L19.7871 5.01593V9.35568C19.7871 10.8804 21.0606 12.126 22.63 12.126H27.1597V28.5354C27.1597 28.8147 26.9698 29.1051 26.6514 29.1051Z" fill="#FCA0A6"/>
<path d="M9.73389 17.6554C9.73389 18.2698 10.2366 18.7725 10.8509 18.7725H20.6251C21.2395 18.7725 21.7422 18.2698 21.7422 17.6554C21.7422 17.041 21.2395 16.5384 20.6251 16.5384H10.8509C10.2366 16.5384 9.73389 17.041 9.73389 17.6554Z" fill="#FCA0A6"/>
<path d="M10.7948 14.3042H17.2737C17.8881 14.3042 18.3907 13.8015 18.3907 13.1871C18.3907 12.5728 17.8881 12.0701 17.2737 12.0701H10.7948C10.1804 12.0701 9.67773 12.5728 9.67773 13.1871C9.67773 13.8015 10.1804 14.3042 10.7948 14.3042Z" fill="#FCA0A6"/>
<path d="M23.4178 21.0065H10.8509C10.2366 21.0065 9.73389 21.5091 9.73389 22.1235C9.73389 22.7379 10.2366 23.2406 10.8509 23.2406H23.4178C24.0321 23.2406 24.5348 22.7379 24.5348 22.1235C24.5348 21.5091 24.0321 21.0065 23.4178 21.0065Z" fill="#FCA0A6"/>
</svg>
