<svg width="30" height="31" viewBox="0 0 30 31" fill="none" xmlns="http://www.w3.org/2000/svg">
<path d="M27.0399 26.1157L22.4051 21.4945C23.9005 19.5893 24.7119 17.2367 24.7089 14.8148C24.7089 12.6579 24.0693 10.5494 22.8709 8.75598C21.6726 6.96256 19.9694 5.56477 17.9767 4.73935C15.9839 3.91394 13.7912 3.69797 11.6757 4.11876C9.56024 4.53956 7.61705 5.57821 6.09188 7.10338C4.56671 8.62856 3.52805 10.5717 3.10726 12.6872C2.68646 14.8027 2.90243 16.9954 3.72785 18.9882C4.55326 20.9809 5.95106 22.6841 7.74447 23.8824C9.53789 25.0808 11.6464 25.7204 13.8033 25.7204C16.2252 25.7234 18.5778 24.912 20.483 23.4166L25.1042 28.0514C25.2309 28.1792 25.3817 28.2806 25.5478 28.3498C25.7139 28.419 25.8921 28.4547 26.0721 28.4547C26.252 28.4547 26.4302 28.419 26.5963 28.3498C26.7624 28.2806 26.9132 28.1792 27.0399 28.0514C27.1677 27.9247 27.2691 27.7739 27.3383 27.6078C27.4075 27.4417 27.4432 27.2635 27.4432 27.0836C27.4432 26.9036 27.4075 26.7254 27.3383 26.5593C27.2691 26.3932 27.1677 26.2424 27.0399 26.1157ZM5.6241 14.8148C5.6241 13.1971 6.1038 11.6157 7.00254 10.2707C7.90128 8.92562 9.1787 7.87727 10.6732 7.25821C12.1678 6.63915 13.8124 6.47717 15.399 6.79277C16.9856 7.10837 18.443 7.88736 19.5868 9.03124C20.7307 10.1751 21.5097 11.6325 21.8253 13.2191C22.1409 14.8057 21.9789 16.4503 21.3599 17.9448C20.7408 19.4394 19.6925 20.7168 18.3474 21.6155C17.0023 22.5143 15.421 22.994 13.8033 22.994C11.634 22.994 9.55363 22.1322 8.01973 20.5983C6.48584 19.0645 5.6241 16.984 5.6241 14.8148Z" fill="black"/>
</svg>
