<svg width="34" height="34" viewBox="0 0 34 34" fill="none" xmlns="http://www.w3.org/2000/svg">
<path d="M28.8467 9.99236L22.0494 3.41294C21.6361 3.0108 21.072 2.7818 20.4911 2.7818L7.68972 2.74829C6.13702 2.74829 4.87476 3.99939 4.87476 5.54092V28.541C4.87476 30.0546 6.17612 31.3392 7.71765 31.3392H26.6517C28.1653 31.3392 29.394 30.0825 29.394 28.5354V11.3272C29.394 10.8078 29.1985 10.3331 28.8467 9.99236ZM22.0215 6.496L25.5346 9.89183H22.6303C22.3063 9.89183 22.0215 9.64049 22.0215 9.35564V6.496ZM26.6517 29.1051H7.71765C7.40488 29.1051 7.10886 28.8314 7.10886 28.5354V5.54092C7.10886 5.2449 7.38253 4.98239 7.68972 4.98239L19.7874 5.0159V9.35564C19.7874 10.8804 21.0608 12.1259 22.6303 12.1259H27.1599V28.5354C27.1599 28.8147 26.97 29.1051 26.6517 29.1051Z" fill="black"/>
<path d="M9.73389 17.6554C9.73389 18.2698 10.2366 18.7724 10.8509 18.7724H20.6251C21.2395 18.7724 21.7422 18.2698 21.7422 17.6554C21.7422 17.041 21.2395 16.5383 20.6251 16.5383H10.8509C10.2366 16.5383 9.73389 17.041 9.73389 17.6554Z" fill="black"/>
<path d="M10.795 14.3042H17.2739C17.8883 14.3042 18.391 13.8015 18.391 13.1871C18.391 12.5727 17.8883 12.0701 17.2739 12.0701H10.795C10.1807 12.0701 9.67798 12.5727 9.67798 13.1871C9.67798 13.8015 10.1807 14.3042 10.795 14.3042Z" fill="black"/>
<path d="M23.4178 21.0065H10.8509C10.2366 21.0065 9.73389 21.5091 9.73389 22.1235C9.73389 22.7379 10.2366 23.2406 10.8509 23.2406H23.4178C24.0321 23.2406 24.5348 22.7379 24.5348 22.1235C24.5348 21.5091 24.0321 21.0065 23.4178 21.0065Z" fill="black"/>
</svg>
