<svg width="24" height="24" viewBox="0 0 24 24" fill="none" xmlns="http://www.w3.org/2000/svg">
<rect x="2" y="2" width="20" height="20" rx="6" fill="#909090" fill-opacity="0.08"/>
<path fill-rule="evenodd" clip-rule="evenodd" d="M8.14282 2C4.82911 2 2.14282 4.68629 2.14282 8V16C2.14282 19.3137 4.82911 22 8.14282 22H16.1428C19.4565 22 22.1428 19.3137 22.1428 16V8C22.1428 4.68629 19.4565 2 16.1428 2H8.14282ZM8.14282 4C5.93368 4 4.14282 5.79086 4.14282 8V16C4.14282 18.2091 5.93368 20 8.14282 20H16.1428C18.352 20 20.1428 18.2091 20.1428 16V8C20.1428 5.79086 18.352 4 16.1428 4H8.14282Z" fill="#B6C1CA"/>
</svg>
