<svg width="20" height="20" viewBox="0 0 20 20" fill="none" xmlns="http://www.w3.org/2000/svg">
<path d="M17.9534 9.20417C18.2067 9.55944 18.3334 9.73707 18.3334 10C18.3334 10.263 18.2067 10.4406 17.9534 10.7959C16.815 12.3922 13.9078 15.8334 10.0001 15.8334C6.0924 15.8334 3.18516 12.3922 2.04678 10.7959C1.79343 10.4406 1.66675 10.263 1.66675 10C1.66675 9.73707 1.79343 9.55944 2.04678 9.20417C3.18516 7.60789 6.0924 4.16669 10.0001 4.16669C13.9078 4.16669 16.815 7.60789 17.9534 9.20417Z" stroke="#14181F" stroke-width="1.5"/>
<path d="M12.5 10C12.5 8.61929 11.3807 7.5 10 7.5C8.61929 7.5 7.5 8.61929 7.5 10C7.5 11.3807 8.61929 12.5 10 12.5C11.3807 12.5 12.5 11.3807 12.5 10Z" stroke="#14181F" stroke-width="1.5"/>
</svg>
