<svg width="34" height="34" viewBox="0 0 34 34" fill="none" xmlns="http://www.w3.org/2000/svg">
<path d="M28.8467 9.99242L22.0494 3.413C21.6361 3.01086 21.072 2.78186 20.4911 2.78186L7.68972 2.74835C6.13702 2.74835 4.87476 3.99945 4.87476 5.54098V28.541C4.87476 30.0547 6.17612 31.3393 7.71765 31.3393H26.6517C28.1653 31.3393 29.394 30.0826 29.394 28.5355V11.3273C29.394 10.8079 29.1985 10.3331 28.8467 9.99242ZM22.0215 6.49606L25.5346 9.89189H22.6303C22.3063 9.89189 22.0215 9.64055 22.0215 9.35571V6.49606ZM26.6517 29.1052H7.71765C7.40488 29.1052 7.10886 28.8315 7.10886 28.5355V5.54098C7.10886 5.24496 7.38253 4.98245 7.68972 4.98245L19.7874 5.01596V9.35571C19.7874 10.8805 21.0608 12.126 22.6303 12.126H27.1599V28.5355C27.1599 28.8147 26.97 29.1052 26.6517 29.1052Z" fill="black"/>
<path d="M9.73389 17.6554C9.73389 18.2698 10.2366 18.7725 10.8509 18.7725H20.6251C21.2395 18.7725 21.7422 18.2698 21.7422 17.6554C21.7422 17.0411 21.2395 16.5384 20.6251 16.5384H10.8509C10.2366 16.5384 9.73389 17.0411 9.73389 17.6554Z" fill="black"/>
<path d="M10.795 14.3042H17.2739C17.8883 14.3042 18.391 13.8016 18.391 13.1872C18.391 12.5728 17.8883 12.0701 17.2739 12.0701H10.795C10.1807 12.0701 9.67798 12.5728 9.67798 13.1872C9.67798 13.8016 10.1807 14.3042 10.795 14.3042Z" fill="black"/>
<path d="M23.4178 21.0065H10.8509C10.2366 21.0065 9.73389 21.5092 9.73389 22.1236C9.73389 22.738 10.2366 23.2406 10.8509 23.2406H23.4178C24.0321 23.2406 24.5348 22.738 24.5348 22.1236C24.5348 21.5092 24.0321 21.0065 23.4178 21.0065Z" fill="black"/>
</svg>
