<svg width="20" height="20" viewBox="0 0 20 20" fill="none" xmlns="http://www.w3.org/2000/svg">
<mask id="path-1-inside-1_46_154217" fill="white">
<path d="M5.83964 2.27297C5.68138 2.27223 5.52906 2.33463 5.4176 2.44679C5.30541 2.55896 5.24225 2.71124 5.24299 2.86947V3.46151H4.05419C3.0764 3.46151 2.27246 4.27045 2.27246 5.24801V15.9425C2.27246 16.92 3.07714 17.7275 4.05419 17.7275H15.9445C16.9223 17.7275 17.7263 16.92 17.7263 15.9425L17.727 5.24801C17.727 4.27045 16.9223 3.46151 15.9453 3.46151H14.7565V2.86947H14.7557C14.7565 2.71125 14.6941 2.55897 14.5819 2.44679C14.4697 2.33537 14.3174 2.27223 14.1591 2.27297C14.0016 2.27371 13.8507 2.33685 13.7393 2.44902C13.6286 2.56045 13.5669 2.71198 13.5669 2.86946V3.46149H11.9821V2.86946H11.9828C11.9828 2.71123 11.9204 2.55896 11.8082 2.44678C11.696 2.33535 11.5445 2.27221 11.3855 2.27296C11.2279 2.2737 11.0771 2.33684 10.9664 2.44901C10.855 2.56043 10.7933 2.71197 10.794 2.86944V3.46148H9.20622V2.86944H9.20548C9.20622 2.71196 9.14381 2.56042 9.0331 2.44901C8.9224 2.33684 8.77082 2.2737 8.61331 2.27296C8.45505 2.27221 8.30274 2.33535 8.19053 2.44678C8.07908 2.55894 8.01593 2.71122 8.01667 2.86946V3.46149H6.43185V2.86946C6.43259 2.71198 6.37092 2.56044 6.25947 2.44902C6.14877 2.33685 5.99789 2.27371 5.83964 2.27297ZM4.0542 4.65155H5.24301V5.24804C5.24375 5.40552 5.30691 5.55631 5.4191 5.66773C5.53055 5.77841 5.68212 5.84081 5.83963 5.84007C6.16656 5.83858 6.43107 5.57414 6.43181 5.24803V4.65154H8.01663V5.24803C8.01738 5.40551 8.08053 5.5563 8.19272 5.66772C8.30418 5.7784 8.45575 5.8408 8.61326 5.84006C8.94019 5.83857 9.20395 5.57413 9.20544 5.24802V4.65153H10.7932L10.794 5.24802C10.7947 5.57411 11.0592 5.83857 11.3854 5.84006C11.5437 5.8408 11.6945 5.7784 11.8067 5.66772C11.9189 5.5563 11.982 5.4055 11.9828 5.24803V4.65154H13.5676L13.5669 5.24803C13.5684 5.57412 13.8329 5.83858 14.159 5.84007C14.3166 5.84081 14.4681 5.77841 14.5803 5.66773C14.6918 5.5563 14.7557 5.40551 14.7557 5.24804V4.65155H15.9445C16.284 4.65155 16.5367 4.90857 16.5367 5.24804V7.62509H3.4613V5.24804C3.4613 4.90855 3.71464 4.65155 4.0542 4.65155ZM3.46128 8.81368H16.5366V15.9426C16.5366 16.282 16.284 16.5391 15.9445 16.5391H4.05411C3.71454 16.5391 3.46119 16.282 3.46119 15.9426L3.46128 8.81368ZM5.84042 10.595H5.83967C5.68216 10.5942 5.53058 10.6559 5.41914 10.7673C5.30695 10.878 5.24379 11.0288 5.24305 11.187C5.24231 11.3452 5.30546 11.4975 5.41765 11.609C5.52911 11.7211 5.68142 11.7843 5.83969 11.7835H7.0285C7.18676 11.7828 7.33759 11.7196 7.44829 11.6075C7.55974 11.496 7.62141 11.3445 7.62067 11.187C7.61992 10.8602 7.35542 10.5957 7.02849 10.595L5.84042 10.595ZM9.40836 10.595H9.40762C9.0792 10.5935 8.81247 10.8587 8.81099 11.187C8.81024 11.3452 8.87266 11.4975 8.98485 11.609C9.09704 11.7211 9.24935 11.7843 9.40763 11.7835H10.592C10.7502 11.7843 10.9026 11.7211 11.014 11.609C11.1262 11.4975 11.1894 11.3453 11.1886 11.187C11.1879 11.0288 11.1247 10.878 11.0125 10.7673C10.9011 10.6559 10.7495 10.5943 10.592 10.595L9.40836 10.595ZM12.971 10.595H12.9702C12.6433 10.5957 12.3788 10.8602 12.3773 11.187C12.3766 11.3445 12.439 11.496 12.5497 11.6082C12.6611 11.7196 12.8127 11.7828 12.9702 11.7835H14.159C14.3173 11.7843 14.4696 11.7211 14.5818 11.6089C14.694 11.4975 14.7564 11.3452 14.7557 11.187C14.7557 11.0288 14.6918 10.878 14.5803 10.7673C14.4681 10.6559 14.3166 10.5942 14.159 10.595L12.971 10.595ZM5.84042 13.5648H5.83967C5.68141 13.564 5.5291 13.6272 5.41764 13.7386C5.30544 13.8508 5.24229 14.003 5.24303 14.1613C5.24377 14.3188 5.30693 14.4703 5.41912 14.581C5.53057 14.6924 5.68214 14.7541 5.83966 14.7533H7.02846C7.35539 14.7518 7.6199 14.4881 7.62064 14.1613C7.62138 14.0038 7.55971 13.8523 7.44826 13.7408C7.33756 13.6287 7.18673 13.5655 7.02847 13.5648L5.84042 13.5648ZM9.40836 13.5648H9.40762C9.24936 13.564 9.09704 13.6272 8.98484 13.7393C8.87264 13.8508 8.81023 14.0031 8.81097 14.1613C8.81246 14.4896 9.07921 14.7548 9.4076 14.7533H10.592C10.7495 14.7541 10.901 14.6924 11.0125 14.581C11.1247 14.4703 11.1878 14.3188 11.1886 14.1613C11.1893 14.0031 11.1262 13.8508 11.014 13.7386C10.9025 13.6272 10.7502 13.5641 10.5919 13.5648L9.40836 13.5648ZM12.971 13.5648H12.9702C12.8127 13.5655 12.6611 13.6287 12.5497 13.7401C12.439 13.8523 12.3766 14.0038 12.3773 14.1613C12.3788 14.4881 12.6433 14.7526 12.9702 14.7533H14.159C14.3166 14.754 14.4681 14.6924 14.5803 14.581C14.6918 14.4703 14.7557 14.3188 14.7557 14.1613C14.7564 14.0031 14.694 13.8508 14.5818 13.7386C14.4696 13.6272 14.3173 13.564 14.159 13.5648L12.971 13.5648Z"/>
</mask>
<path d="M5.83964 2.27297C5.68138 2.27223 5.52906 2.33463 5.4176 2.44679C5.30541 2.55896 5.24225 2.71124 5.24299 2.86947V3.46151H4.05419C3.0764 3.46151 2.27246 4.27045 2.27246 5.24801V15.9425C2.27246 16.92 3.07714 17.7275 4.05419 17.7275H15.9445C16.9223 17.7275 17.7263 16.92 17.7263 15.9425L17.727 5.24801C17.727 4.27045 16.9223 3.46151 15.9453 3.46151H14.7565V2.86947H14.7557C14.7565 2.71125 14.6941 2.55897 14.5819 2.44679C14.4697 2.33537 14.3174 2.27223 14.1591 2.27297C14.0016 2.27371 13.8507 2.33685 13.7393 2.44902C13.6286 2.56045 13.5669 2.71198 13.5669 2.86946V3.46149H11.9821V2.86946H11.9828C11.9828 2.71123 11.9204 2.55896 11.8082 2.44678C11.696 2.33535 11.5445 2.27221 11.3855 2.27296C11.2279 2.2737 11.0771 2.33684 10.9664 2.44901C10.855 2.56043 10.7933 2.71197 10.794 2.86944V3.46148H9.20622V2.86944H9.20548C9.20622 2.71196 9.14381 2.56042 9.0331 2.44901C8.9224 2.33684 8.77082 2.2737 8.61331 2.27296C8.45505 2.27221 8.30274 2.33535 8.19053 2.44678C8.07908 2.55894 8.01593 2.71122 8.01667 2.86946V3.46149H6.43185V2.86946C6.43259 2.71198 6.37092 2.56044 6.25947 2.44902C6.14877 2.33685 5.99789 2.27371 5.83964 2.27297ZM4.0542 4.65155H5.24301V5.24804C5.24375 5.40552 5.30691 5.55631 5.4191 5.66773C5.53055 5.77841 5.68212 5.84081 5.83963 5.84007C6.16656 5.83858 6.43107 5.57414 6.43181 5.24803V4.65154H8.01663V5.24803C8.01738 5.40551 8.08053 5.5563 8.19272 5.66772C8.30418 5.7784 8.45575 5.8408 8.61326 5.84006C8.94019 5.83857 9.20395 5.57413 9.20544 5.24802V4.65153H10.7932L10.794 5.24802C10.7947 5.57411 11.0592 5.83857 11.3854 5.84006C11.5437 5.8408 11.6945 5.7784 11.8067 5.66772C11.9189 5.5563 11.982 5.4055 11.9828 5.24803V4.65154H13.5676L13.5669 5.24803C13.5684 5.57412 13.8329 5.83858 14.159 5.84007C14.3166 5.84081 14.4681 5.77841 14.5803 5.66773C14.6918 5.5563 14.7557 5.40551 14.7557 5.24804V4.65155H15.9445C16.284 4.65155 16.5367 4.90857 16.5367 5.24804V7.62509H3.4613V5.24804C3.4613 4.90855 3.71464 4.65155 4.0542 4.65155ZM3.46128 8.81368H16.5366V15.9426C16.5366 16.282 16.284 16.5391 15.9445 16.5391H4.05411C3.71454 16.5391 3.46119 16.282 3.46119 15.9426L3.46128 8.81368ZM5.84042 10.595H5.83967C5.68216 10.5942 5.53058 10.6559 5.41914 10.7673C5.30695 10.878 5.24379 11.0288 5.24305 11.187C5.24231 11.3452 5.30546 11.4975 5.41765 11.609C5.52911 11.7211 5.68142 11.7843 5.83969 11.7835H7.0285C7.18676 11.7828 7.33759 11.7196 7.44829 11.6075C7.55974 11.496 7.62141 11.3445 7.62067 11.187C7.61992 10.8602 7.35542 10.5957 7.02849 10.595L5.84042 10.595ZM9.40836 10.595H9.40762C9.0792 10.5935 8.81247 10.8587 8.81099 11.187C8.81024 11.3452 8.87266 11.4975 8.98485 11.609C9.09704 11.7211 9.24935 11.7843 9.40763 11.7835H10.592C10.7502 11.7843 10.9026 11.7211 11.014 11.609C11.1262 11.4975 11.1894 11.3453 11.1886 11.187C11.1879 11.0288 11.1247 10.878 11.0125 10.7673C10.9011 10.6559 10.7495 10.5943 10.592 10.595L9.40836 10.595ZM12.971 10.595H12.9702C12.6433 10.5957 12.3788 10.8602 12.3773 11.187C12.3766 11.3445 12.439 11.496 12.5497 11.6082C12.6611 11.7196 12.8127 11.7828 12.9702 11.7835H14.159C14.3173 11.7843 14.4696 11.7211 14.5818 11.6089C14.694 11.4975 14.7564 11.3452 14.7557 11.187C14.7557 11.0288 14.6918 10.878 14.5803 10.7673C14.4681 10.6559 14.3166 10.5942 14.159 10.595L12.971 10.595ZM5.84042 13.5648H5.83967C5.68141 13.564 5.5291 13.6272 5.41764 13.7386C5.30544 13.8508 5.24229 14.003 5.24303 14.1613C5.24377 14.3188 5.30693 14.4703 5.41912 14.581C5.53057 14.6924 5.68214 14.7541 5.83966 14.7533H7.02846C7.35539 14.7518 7.6199 14.4881 7.62064 14.1613C7.62138 14.0038 7.55971 13.8523 7.44826 13.7408C7.33756 13.6287 7.18673 13.5655 7.02847 13.5648L5.84042 13.5648ZM9.40836 13.5648H9.40762C9.24936 13.564 9.09704 13.6272 8.98484 13.7393C8.87264 13.8508 8.81023 14.0031 8.81097 14.1613C8.81246 14.4896 9.07921 14.7548 9.4076 14.7533H10.592C10.7495 14.7541 10.901 14.6924 11.0125 14.581C11.1247 14.4703 11.1878 14.3188 11.1886 14.1613C11.1893 14.0031 11.1262 13.8508 11.014 13.7386C10.9025 13.6272 10.7502 13.5641 10.5919 13.5648L9.40836 13.5648ZM12.971 13.5648H12.9702C12.8127 13.5655 12.6611 13.6287 12.5497 13.7401C12.439 13.8523 12.3766 14.0038 12.3773 14.1613C12.3788 14.4881 12.6433 14.7526 12.9702 14.7533H14.159C14.3166 14.754 14.4681 14.6924 14.5803 14.581C14.6918 14.4703 14.7557 14.3188 14.7557 14.1613C14.7564 14.0031 14.694 13.8508 14.5818 13.7386C14.4696 13.6272 14.3173 13.564 14.159 13.5648L12.971 13.5648Z" fill="black" stroke="#14181F" stroke-width="2" mask="url(#path-1-inside-1_46_154217)"/>
</svg>
