<svg width="17" height="16" viewBox="0 0 17 16" fill="none" xmlns="http://www.w3.org/2000/svg">
<path d="M14.75 8.00049C14.75 8.1994 14.671 8.39017 14.5303 8.53082C14.3897 8.67147 14.1989 8.75049 14 8.75049H9.25V13.5005C9.25 13.6994 9.17098 13.8902 9.03033 14.0308C8.88968 14.1715 8.69891 14.2505 8.5 14.2505C8.30109 14.2505 8.11032 14.1715 7.96967 14.0308C7.82902 13.8902 7.75 13.6994 7.75 13.5005V8.75049H3C2.80109 8.75049 2.61032 8.67147 2.46967 8.53082C2.32902 8.39017 2.25 8.1994 2.25 8.00049C2.25 7.80158 2.32902 7.61081 2.46967 7.47016C2.61032 7.32951 2.80109 7.25049 3 7.25049H7.75V2.50049C7.75 2.30158 7.82902 2.11081 7.96967 1.97016C8.11032 1.82951 8.30109 1.75049 8.5 1.75049C8.69891 1.75049 8.88968 1.82951 9.03033 1.97016C9.17098 2.11081 9.25 2.30158 9.25 2.50049V7.25049H14C14.1989 7.25049 14.3897 7.32951 14.5303 7.47016C14.671 7.61081 14.75 7.80158 14.75 8.00049Z" fill="black"/>
</svg>
