<svg width="21" height="20" viewBox="0 0 21 20" fill="none" xmlns="http://www.w3.org/2000/svg">
<path d="M18.5527 9.20399C18.8061 9.55926 18.9328 9.73689 18.9328 9.99984C18.9328 10.2628 18.8061 10.4404 18.5527 10.7957C17.4144 12.392 14.5071 15.8332 10.5994 15.8332C6.69176 15.8332 3.78453 12.392 2.64615 10.7957C2.39279 10.4404 2.26611 10.2628 2.26611 9.99984C2.26611 9.73689 2.39279 9.55926 2.64615 9.20399C3.78453 7.60771 6.69176 4.1665 10.5994 4.1665C14.5071 4.1665 17.4144 7.6077 18.5527 9.20399Z" stroke="#14181F" stroke-width="1.5"/>
<path d="M13.0996 10C13.0996 8.61929 11.9803 7.5 10.5996 7.5C9.2189 7.5 8.09961 8.61929 8.09961 10C8.09961 11.3807 9.2189 12.5 10.5996 12.5C11.9803 12.5 13.0996 11.3807 13.0996 10Z" stroke="#14181F" stroke-width="1.5"/>
</svg>
