<svg width="56" height="56" viewBox="0 0 56 56" fill="none" xmlns="http://www.w3.org/2000/svg">
<path d="M16.5207 36.2288L16.6181 39.855V39.8752C16.5979 39.9138 16.5979 39.9542 16.5979 39.9928C16.5979 40.1307 16.6181 40.2667 16.6769 40.4045C16.6971 40.5222 16.7357 40.6398 16.8147 40.7372C16.8736 40.8346 16.9526 40.9339 17.0298 41.0313C17.1088 41.1103 17.186 41.1691 17.265 41.2279C17.3239 41.2665 17.4029 41.307 17.4617 41.3253C17.5003 41.3456 17.5407 41.3639 17.5995 41.3639C17.6584 41.4025 17.7172 41.4228 17.776 41.4228C17.8734 41.443 17.9726 41.4614 18.0701 41.4614H18.0903C18.3053 41.4614 18.5222 41.4228 18.7372 41.3051L22.051 39.6583C22.6006 39.3845 23.0895 38.9912 23.4828 38.5206C23.5802 38.403 23.6795 38.2854 23.7567 38.1475L29.3826 29.5809L31.3032 26.6402L38.949 14.9951C39.5372 14.1331 39.7338 13.0744 39.5169 12.0341C39.3019 11.0141 38.7138 10.1318 37.8316 9.5437C36.9494 8.97579 35.8907 8.77912 34.8706 8.99414C33.8322 9.1908 32.95 9.79731 32.3802 10.6795L21.8911 26.6383L19.9502 29.579L17.2245 33.7346C16.7338 34.479 16.4985 35.3428 16.5188 36.225L16.5207 36.2288Z" fill="#012A6C"/>
<path d="M44.81 30.9741C44.2016 28.4249 41.9281 26.6421 39.3201 26.6421H34.8116L33.753 28.2503L31.8507 31.191L27.028 38.5225H38.0648C38.8882 38.5225 39.5351 39.1897 39.5351 39.9929C39.5351 40.8163 38.8882 41.4632 38.0648 41.4632H24.6349C24.2435 41.7775 23.8115 42.0514 23.3613 42.2866L20.0474 43.9334C19.5181 44.2275 18.8326 44.4039 18.0863 44.4039H18.0661C17.8897 44.4039 17.7132 44.3837 17.5368 44.3653H16.8899L16.3991 44.0713C16.3605 44.051 16.3201 44.0327 16.2815 44.0327C16.0076 43.915 15.7907 43.7772 15.6345 43.6798C15.3202 43.4445 15.1254 43.3067 14.949 43.1119L14.8314 42.9942L14.734 42.8564C14.5961 42.7002 14.4785 42.5421 14.3811 42.3859C14.1072 42.0128 13.9308 41.5827 13.8132 41.1122C13.7158 40.7593 13.6753 40.4064 13.6753 40.0333L13.5779 36.3078C13.5393 34.7989 13.951 33.3469 14.7744 32.132L17.4799 27.9764L18.3621 26.644H16.7355C14.1275 26.644 11.8539 28.4286 11.2456 30.9962L9.06946 40.1509C8.65776 41.8363 9.04924 43.5824 10.1281 44.9535C11.207 46.3062 12.8133 47.091 14.5594 47.091H41.4962C43.2404 47.091 44.8486 46.3062 45.9275 44.9535C47.0064 43.5805 47.3978 41.8363 46.9861 40.1509L44.81 30.976V30.9741Z" fill="#012A6C"/>
</svg>
