<svg width="30" height="31" viewBox="0 0 30 31" fill="none" xmlns="http://www.w3.org/2000/svg">
<path d="M27.0399 26.1159L22.4051 21.4947C23.9005 19.5895 24.7119 17.2369 24.7089 14.815C24.7089 12.6581 24.0693 10.5496 22.8709 8.75619C21.6726 6.96278 19.9694 5.56498 17.9767 4.73957C15.9839 3.91415 13.7912 3.69818 11.6757 4.11898C9.56024 4.53977 7.61705 5.57843 6.09188 7.1036C4.56671 8.62877 3.52805 10.572 3.10726 12.6874C2.68646 14.8029 2.90243 16.9957 3.72785 18.9884C4.55326 20.9811 5.95106 22.6843 7.74447 23.8827C9.53789 25.081 11.6464 25.7206 13.8033 25.7206C16.2252 25.7236 18.5778 24.9122 20.483 23.4168L25.1042 28.0516C25.2309 28.1794 25.3817 28.2808 25.5478 28.35C25.7139 28.4192 25.8921 28.4549 26.0721 28.4549C26.252 28.4549 26.4302 28.4192 26.5963 28.35C26.7624 28.2808 26.9132 28.1794 27.0399 28.0516C27.1677 27.9249 27.2691 27.7741 27.3383 27.608C27.4075 27.4419 27.4432 27.2637 27.4432 27.0838C27.4432 26.9038 27.4075 26.7256 27.3383 26.5595C27.2691 26.3934 27.1677 26.2426 27.0399 26.1159ZM5.6241 14.815C5.6241 13.1973 6.1038 11.616 7.00254 10.2709C7.90128 8.92584 9.1787 7.87749 10.6732 7.25843C12.1678 6.63936 13.8124 6.47739 15.399 6.79298C16.9856 7.10858 18.443 7.88757 19.5868 9.03145C20.7307 10.1753 21.5097 11.6327 21.8253 13.2193C22.1409 14.8059 21.9789 16.4505 21.3599 17.945C20.7408 19.4396 19.6925 20.717 18.3474 21.6157C17.0023 22.5145 15.421 22.9942 13.8033 22.9942C11.634 22.9942 9.55363 22.1325 8.01973 20.5986C6.48584 19.0647 5.6241 16.9843 5.6241 14.815Z" fill="black"/>
</svg>
