<svg width="34" height="34" viewBox="0 0 34 34" fill="none" xmlns="http://www.w3.org/2000/svg">
<path d="M8.46356 26.582H6.02862C5.22293 26.582 4.48876 26.2442 3.95461 25.6999C3.42157 25.159 3.09082 24.4082 3.09082 23.582V12.4449C3.09082 11.6187 3.42046 10.8679 3.95238 10.3258L4.00825 10.2745C4.52452 9.77238 5.21847 9.45972 5.98056 9.44719V6.78727C5.98056 6.30346 6.36498 5.9109 6.83877 5.9109H8.46356V4.74014C8.46356 4.25632 8.84798 3.86377 9.32177 3.86377H24.6803C25.1541 3.86377 25.5385 4.25632 25.5385 4.74014V5.9109H27.1622C27.636 5.9109 28.0204 6.30346 28.0204 6.78727V9.44719C28.8104 9.45974 29.5267 9.79408 30.0474 10.327C30.5794 10.8701 30.909 11.621 30.909 12.446V23.5831C30.909 24.4093 30.5794 25.1601 30.0474 25.7033L29.9916 25.7558C29.463 26.2682 28.7512 26.5842 27.9723 26.5842H25.5385V29.2601C25.5385 29.7439 25.1541 30.1365 24.6803 30.1365H9.32177C8.84798 30.1365 8.46356 29.7439 8.46356 29.2601V26.582ZM7.69697 9.4449H8.46356V7.66249H7.69697V9.4449ZM25.5394 9.4449H26.3049V7.66249H25.5394V9.4449ZM7.0064 12.1014C7.6266 12.1014 8.12945 12.6149 8.12945 13.2482C8.12945 13.8827 7.6266 14.3962 7.0064 14.3962C6.38509 14.3962 5.88223 13.8827 5.88223 13.2482C5.88223 12.6149 6.38509 12.1014 7.0064 12.1014ZM11.7946 27.0087C11.3209 27.0087 10.9364 26.6161 10.9364 26.1323C10.9364 25.6485 11.3209 25.256 11.7946 25.256H22.2082C22.6819 25.256 23.0664 25.6485 23.0664 26.1323C23.0664 26.6161 22.6819 27.0087 22.2082 27.0087H11.7946ZM11.7946 23.7772C11.3209 23.7772 10.9364 23.3847 10.9364 22.9009C10.9364 22.4171 11.3209 22.0245 11.7946 22.0245H22.2082C22.6819 22.0245 23.0664 22.4171 23.0664 22.9009C23.0664 23.3847 22.6819 23.7772 22.2082 23.7772H11.7946ZM25.5394 24.8305H27.9733C28.2929 24.8305 28.5845 24.705 28.8013 24.5007L28.8359 24.4642C29.0572 24.2382 29.1946 23.9256 29.1946 23.5833V12.4461C29.1946 12.1038 29.0572 11.7922 28.8359 11.5663C28.6147 11.3404 28.3085 11.2 27.9744 11.2H26.4144V12.7359C26.4144 13.2837 26.1943 13.7846 25.8378 14.1475C25.4847 14.5115 24.9941 14.7363 24.4544 14.7363H19.8427C19.3029 14.7363 18.8124 14.5115 18.4581 14.1498L18.4 14.0847C18.0793 13.7275 17.8827 13.2528 17.8827 12.7359V11.2012H6.02964C5.71004 11.2012 5.41839 11.3278 5.20049 11.5321L5.16809 11.5674C4.94683 11.7934 4.80938 12.1061 4.80938 12.4472V23.5844C4.80938 23.9267 4.94683 24.2394 5.16809 24.4653C5.38711 24.6935 5.69328 24.8327 6.02964 24.8327H8.46458V23.8856H6.83979C6.366 23.8856 5.98158 23.4931 5.98158 23.0092V19.7766C5.98158 19.2928 6.366 18.9003 6.83979 18.9003H27.1631C27.6368 18.9003 28.0213 19.2928 28.0213 19.7766V23.0092C28.0213 23.4931 27.6368 23.8856 27.1631 23.8856H25.5394V24.8327L25.5394 24.8305ZM10.1809 28.3827H23.823V20.6517H10.1809V28.3839V28.3827ZM8.4645 22.1307V20.6507H7.69792V22.1307H8.4645ZM25.5394 20.6507V22.1307H26.3049V20.6507H25.5394ZM24.6969 11.1979H19.5991V12.7327C19.5991 12.7909 19.6181 12.8445 19.6494 12.8856L19.6717 12.9073C19.7164 12.9529 19.7768 12.9803 19.8427 12.9803H24.4545C24.5204 12.9803 24.5818 12.9518 24.6254 12.9073C24.6712 12.865 24.6969 12.8023 24.6969 12.7327L24.6969 11.1979ZM10.1811 9.44517H23.8232V5.61574H10.1811V9.44517Z" fill="black"/>
</svg>
