<svg width="20" height="22" viewBox="0 0 20 22" fill="none" xmlns="http://www.w3.org/2000/svg">
<path d="M18.9375 3.875H14.875V3.0625C14.875 2.41603 14.6182 1.79605 14.1611 1.33893C13.704 0.881807 13.084 0.625 12.4375 0.625H7.5625C6.91603 0.625 6.29605 0.881807 5.83893 1.33893C5.38181 1.79605 5.125 2.41603 5.125 3.0625V3.875H1.0625C0.847012 3.875 0.640349 3.9606 0.487976 4.11298C0.335603 4.26535 0.25 4.47201 0.25 4.6875C0.25 4.90299 0.335603 5.10965 0.487976 5.26202C0.640349 5.4144 0.847012 5.5 1.0625 5.5H1.875V20.125C1.875 20.556 2.0462 20.9693 2.35095 21.274C2.6557 21.5788 3.06902 21.75 3.5 21.75H16.5C16.931 21.75 17.3443 21.5788 17.649 21.274C17.9538 20.9693 18.125 20.556 18.125 20.125V5.5H18.9375C19.153 5.5 19.3597 5.4144 19.512 5.26202C19.6644 5.10965 19.75 4.90299 19.75 4.6875C19.75 4.47201 19.6644 4.26535 19.512 4.11298C19.3597 3.9606 19.153 3.875 18.9375 3.875ZM8.375 16.0625C8.375 16.278 8.2894 16.4847 8.13702 16.637C7.98465 16.7894 7.77799 16.875 7.5625 16.875C7.34701 16.875 7.14035 16.7894 6.98798 16.637C6.8356 16.4847 6.75 16.278 6.75 16.0625V9.5625C6.75 9.34701 6.8356 9.14035 6.98798 8.98798C7.14035 8.8356 7.34701 8.75 7.5625 8.75C7.77799 8.75 7.98465 8.8356 8.13702 8.98798C8.2894 9.14035 8.375 9.34701 8.375 9.5625V16.0625ZM13.25 16.0625C13.25 16.278 13.1644 16.4847 13.012 16.637C12.8597 16.7894 12.653 16.875 12.4375 16.875C12.222 16.875 12.0153 16.7894 11.863 16.637C11.7106 16.4847 11.625 16.278 11.625 16.0625V9.5625C11.625 9.34701 11.7106 9.14035 11.863 8.98798C12.0153 8.8356 12.222 8.75 12.4375 8.75C12.653 8.75 12.8597 8.8356 13.012 8.98798C13.1644 9.14035 13.25 9.34701 13.25 9.5625V16.0625ZM13.25 3.875H6.75V3.0625C6.75 2.84701 6.8356 2.64035 6.98798 2.48798C7.14035 2.3356 7.34701 2.25 7.5625 2.25H12.4375C12.653 2.25 12.8597 2.3356 13.012 2.48798C13.1644 2.64035 13.25 2.84701 13.25 3.0625V3.875Z" fill="#FF3333"/>
</svg>
