<svg width="19" height="23" viewBox="0 0 19 23" fill="none" xmlns="http://www.w3.org/2000/svg">
<path fill-rule="evenodd" clip-rule="evenodd" d="M10.818 0.953125C10.8477 0.953125 10.8772 0.955129 10.9063 0.959062L18.0667 8.16167C18.0676 8.17544 18.068 8.18928 18.068 8.20312V18.7486C18.068 20.5686 16.5926 22.044 14.7726 22.044H4.2271C2.40707 22.044 0.931641 20.5686 0.931641 18.7486V4.24858C0.931641 2.42855 2.40707 0.953125 4.2271 0.953125H10.818ZM13.4544 7.54403C12.3623 7.54403 11.4771 6.65878 11.4771 5.56676V3.2034L15.8177 7.54403H13.4544ZM5.54528 10.1804H13.4544C13.8184 10.1804 14.1135 10.4755 14.1135 10.8395C14.1135 11.2035 13.8184 11.4986 13.4544 11.4986H5.54528C5.18127 11.4986 4.88619 11.2035 4.88619 10.8395C4.88619 10.4755 5.18127 10.1804 5.54528 10.1804ZM13.4544 13.4759H5.54528C5.18127 13.4759 4.88619 13.7709 4.88619 14.1349C4.88619 14.499 5.18127 14.794 5.54528 14.794H13.4544C13.8184 14.794 14.1135 14.499 14.1135 14.1349C14.1135 13.7709 13.8184 13.4759 13.4544 13.4759ZM7.52255 16.7713H11.8066C12.1707 16.7713 12.4657 17.0664 12.4657 17.4304C12.4657 17.7944 12.1707 18.0895 11.8066 18.0895H7.52255C7.15854 18.0895 6.86346 17.7944 6.86346 17.4304C6.86346 17.0664 7.15855 16.7713 7.52255 16.7713Z" fill="black"/>
</svg>
