<svg width="17" height="16" viewBox="0 0 17 16" fill="none" xmlns="http://www.w3.org/2000/svg">
<path d="M14.75 8C14.75 8.19891 14.671 8.38968 14.5303 8.53033C14.3897 8.67098 14.1989 8.75 14 8.75H9.25V13.5C9.25 13.6989 9.17098 13.8897 9.03033 14.0303C8.88968 14.171 8.69891 14.25 8.5 14.25C8.30109 14.25 8.11032 14.171 7.96967 14.0303C7.82902 13.8897 7.75 13.6989 7.75 13.5V8.75H3C2.80109 8.75 2.61032 8.67098 2.46967 8.53033C2.32902 8.38968 2.25 8.19891 2.25 8C2.25 7.80109 2.32902 7.61032 2.46967 7.46967C2.61032 7.32902 2.80109 7.25 3 7.25H7.75V2.5C7.75 2.30109 7.82902 2.11032 7.96967 1.96967C8.11032 1.82902 8.30109 1.75 8.5 1.75C8.69891 1.75 8.88968 1.82902 9.03033 1.96967C9.17098 2.11032 9.25 2.30109 9.25 2.5V7.25H14C14.1989 7.25 14.3897 7.32902 14.5303 7.46967C14.671 7.61032 14.75 7.80109 14.75 8Z" fill="black"/>
</svg>
