<svg width="24" height="24" viewBox="0 0 24 24" fill="none" xmlns="http://www.w3.org/2000/svg">
<path d="M20.25 4.50012H16.5V3.75012C16.5 3.15338 16.2629 2.58109 15.841 2.15913C15.419 1.73718 14.8467 1.50012 14.25 1.50012H9.75C9.15326 1.50012 8.58097 1.73718 8.15901 2.15913C7.73705 2.58109 7.5 3.15338 7.5 3.75012V4.50012H3.75C3.55109 4.50012 3.36032 4.57914 3.21967 4.71979C3.07902 4.86044 3 5.05121 3 5.25012C3 5.44903 3.07902 5.6398 3.21967 5.78045C3.36032 5.9211 3.55109 6.00012 3.75 6.00012H4.5V19.5001C4.5 19.8979 4.65804 20.2795 4.93934 20.5608C5.22064 20.8421 5.60218 21.0001 6 21.0001H18C18.3978 21.0001 18.7794 20.8421 19.0607 20.5608C19.342 20.2795 19.5 19.8979 19.5 19.5001V6.00012H20.25C20.4489 6.00012 20.6397 5.9211 20.7803 5.78045C20.921 5.6398 21 5.44903 21 5.25012C21 5.05121 20.921 4.86044 20.7803 4.71979C20.6397 4.57914 20.4489 4.50012 20.25 4.50012ZM10.5 15.7501C10.5 15.949 10.421 16.1398 10.2803 16.2805C10.1397 16.4211 9.94891 16.5001 9.75 16.5001C9.55109 16.5001 9.36032 16.4211 9.21967 16.2805C9.07902 16.1398 9 15.949 9 15.7501V9.75012C9 9.55121 9.07902 9.36044 9.21967 9.21979C9.36032 9.07914 9.55109 9.00012 9.75 9.00012C9.94891 9.00012 10.1397 9.07914 10.2803 9.21979C10.421 9.36044 10.5 9.55121 10.5 9.75012V15.7501ZM15 15.7501C15 15.949 14.921 16.1398 14.7803 16.2805C14.6397 16.4211 14.4489 16.5001 14.25 16.5001C14.0511 16.5001 13.8603 16.4211 13.7197 16.2805C13.579 16.1398 13.5 15.949 13.5 15.7501V9.75012C13.5 9.55121 13.579 9.36044 13.7197 9.21979C13.8603 9.07914 14.0511 9.00012 14.25 9.00012C14.4489 9.00012 14.6397 9.07914 14.7803 9.21979C14.921 9.36044 15 9.55121 15 9.75012V15.7501ZM15 4.50012H9V3.75012C9 3.55121 9.07902 3.36044 9.21967 3.21979C9.36032 3.07914 9.55109 3.00012 9.75 3.00012H14.25C14.4489 3.00012 14.6397 3.07914 14.7803 3.21979C14.921 3.36044 15 3.55121 15 3.75012V4.50012Z" fill="#FF3333"/>
</svg>
