<svg width="17" height="17" viewBox="0 0 17 17" fill="none" xmlns="http://www.w3.org/2000/svg">
<path d="M8.49998 15.1693C12.1819 15.1693 15.1666 12.1845 15.1666 8.5026C15.1666 4.82071 12.1819 1.83594 8.49998 1.83594C4.81808 1.83594 1.83331 4.82071 1.83331 8.5026C1.83331 12.1845 4.81808 15.1693 8.49998 15.1693Z" stroke="black" stroke-width="1.5"/>
<path d="M8.50549 7.51131C7.95321 7.51131 7.50549 7.95903 7.50549 8.51131C7.50549 9.0636 7.95321 9.51131 8.50549 9.51131C9.05778 9.51131 9.50549 9.0636 9.50549 8.51131C9.50549 7.95903 9.05778 7.51131 8.50549 7.51131ZM8.50549 7.51131V5.17188M10.5101 10.5191L9.21101 9.22" stroke="black" stroke-width="1.5" stroke-linecap="round" stroke-linejoin="round"/>
</svg>
