<svg width="16" height="16" viewBox="0 0 16 16" fill="none" xmlns="http://www.w3.org/2000/svg">
<path d="M7.99992 14.6666C11.6818 14.6666 14.6666 11.6819 14.6666 7.99998C14.6666 4.31808 11.6818 1.33331 7.99992 1.33331C4.31802 1.33331 1.33325 4.31808 1.33325 7.99998C1.33325 11.6819 4.31802 14.6666 7.99992 14.6666Z" stroke="#DB6E00" stroke-width="1.5"/>
<path d="M8.00537 7.00551C7.45309 7.00551 7.00537 7.45323 7.00537 8.00551C7.00537 8.5578 7.45309 9.00551 8.00537 9.00551C8.55766 9.00551 9.00537 8.5578 9.00537 8.00551C9.00537 7.45323 8.55766 7.00551 8.00537 7.00551ZM8.00537 7.00551V4.66608M10.01 10.0133L8.71089 8.7142" stroke="#DB6E00" stroke-width="1.5" stroke-linecap="round" stroke-linejoin="round"/>
</svg>
