<svg width="21" height="20" viewBox="0 0 21 20" fill="none" xmlns="http://www.w3.org/2000/svg">
<path d="M18.1199 9.20399C18.3733 9.55926 18.5 9.73689 18.5 9.99984C18.5 10.2628 18.3733 10.4404 18.1199 10.7957C16.9816 12.392 14.0743 15.8332 10.1666 15.8332C6.25896 15.8332 3.35173 12.392 2.21335 10.7957C1.95999 10.4404 1.83331 10.2628 1.83331 9.99984C1.83331 9.73689 1.95999 9.55926 2.21335 9.20399C3.35173 7.60771 6.25896 4.1665 10.1666 4.1665C14.0743 4.1665 16.9816 7.6077 18.1199 9.20399Z" stroke="#14181F" stroke-width="1.5"/>
<path d="M12.6667 10C12.6667 8.61929 11.5474 7.5 10.1667 7.5C8.78594 7.5 7.66666 8.61929 7.66666 10C7.66666 11.3807 8.78594 12.5 10.1667 12.5C11.5474 12.5 12.6667 11.3807 12.6667 10Z" stroke="#14181F" stroke-width="1.5"/>
</svg>
