<svg width="24" height="24" viewBox="0 0 24 24" fill="none" xmlns="http://www.w3.org/2000/svg">
<path d="M15.9741 11.0653H12.9349V8.02614C12.9349 7.50914 12.5169 7.09119 11.9999 7.09119C11.4829 7.09119 11.065 7.50914 11.065 8.02614V11.0653H8.02577C7.50877 11.0653 7.09082 11.4833 7.09082 12.0003C7.09082 12.5173 7.50877 12.9352 8.02577 12.9352H11.065V15.9744C11.065 16.4914 11.4829 16.9094 11.9999 16.9094C12.5169 16.9094 12.9349 16.4914 12.9349 15.9744V12.9352H15.9741C16.4911 12.9352 16.909 12.5173 16.909 12.0003C16.909 11.4833 16.4886 11.0653 15.9741 11.0653Z" fill="#012A6C"/>
<path d="M11.9999 2.18207C6.58522 2.18207 2.18176 6.58552 2.18176 12.0002C2.18176 17.415 6.58522 21.8184 11.9999 21.8184C17.4147 21.8184 21.8181 17.415 21.8181 12.0002C21.8181 6.58552 17.4147 2.18207 11.9999 2.18207ZM11.9999 19.9211C7.63331 19.9211 4.07913 16.3693 4.07913 12.0002C4.07913 7.63361 7.63085 4.07943 11.9999 4.07943C16.369 4.07943 19.9208 7.63361 19.9208 12.0002C19.9208 16.3669 16.3666 19.9211 11.9999 19.9211Z" fill="black"/>
</svg>
