<svg width="34" height="34" viewBox="0 0 34 34" fill="none" xmlns="http://www.w3.org/2000/svg">
<path d="M28.8469 9.99236L22.0497 3.41294C21.6363 3.0108 21.0722 2.7818 20.4914 2.7818L7.68997 2.74829C6.13727 2.74829 4.875 3.99939 4.875 5.54092V28.541C4.875 30.0546 6.17636 31.3392 7.71789 31.3392H26.6519C28.1655 31.3392 29.3943 30.0825 29.3943 28.5354V11.3272C29.3943 10.8078 29.1988 10.3331 28.8469 9.99236ZM22.0217 6.496L25.5349 9.89183H22.6305C22.3066 9.89183 22.0217 9.64049 22.0217 9.35564V6.496ZM26.6519 29.1051H7.71789C7.40512 29.1051 7.1091 28.8314 7.1091 28.5354V5.54092C7.1091 5.2449 7.38278 4.98239 7.68997 4.98239L19.7876 5.0159V9.35564C19.7876 10.8804 21.0611 12.1259 22.6305 12.1259H27.1602V28.5354C27.1602 28.8147 26.9703 29.1051 26.6519 29.1051Z" fill="black"/>
<path d="M9.73438 17.6554C9.73438 18.2698 10.237 18.7724 10.8514 18.7724H20.6256C21.24 18.7724 21.7427 18.2698 21.7427 17.6554C21.7427 17.041 21.24 16.5383 20.6256 16.5383H10.8514C10.237 16.5383 9.73438 17.041 9.73438 17.6554Z" fill="black"/>
<path d="M10.7958 14.3042H17.2747C17.889 14.3042 18.3917 13.8015 18.3917 13.1871C18.3917 12.5727 17.889 12.0701 17.2747 12.0701H10.7958C10.1814 12.0701 9.67871 12.5727 9.67871 13.1871C9.67871 13.8015 10.1814 14.3042 10.7958 14.3042Z" fill="black"/>
<path d="M23.4182 21.0063H10.8514C10.237 21.0063 9.73438 21.509 9.73438 22.1234C9.73438 22.7378 10.237 23.2404 10.8514 23.2404H23.4182C24.0326 23.2404 24.5353 22.7378 24.5353 22.1234C24.5353 21.509 24.0326 21.0063 23.4182 21.0063Z" fill="black"/>
</svg>
