<svg width="30" height="29" viewBox="0 0 30 29" fill="none" xmlns="http://www.w3.org/2000/svg">
<path fill-rule="evenodd" clip-rule="evenodd" d="M16.318 3.95312C16.3477 3.95312 16.3772 3.95513 16.4063 3.95906L23.5667 11.1617C23.5676 11.1754 23.568 11.1893 23.568 11.2031V21.7486C23.568 23.5686 22.0926 25.044 20.2726 25.044H9.7271C7.90707 25.044 6.43164 23.5686 6.43164 21.7486V7.24858C6.43164 5.42855 7.90707 3.95312 9.7271 3.95312H16.318ZM18.9544 10.544C17.8623 10.544 16.9771 9.65878 16.9771 8.56676V6.2034L21.3177 10.544H18.9544ZM11.0453 13.1804H18.9544C19.3184 13.1804 19.6135 13.4755 19.6135 13.8395C19.6135 14.2035 19.3184 14.4986 18.9544 14.4986H11.0453C10.6813 14.4986 10.3862 14.2035 10.3862 13.8395C10.3862 13.4755 10.6813 13.1804 11.0453 13.1804ZM18.9544 16.4759H11.0453C10.6813 16.4759 10.3862 16.7709 10.3862 17.1349C10.3862 17.499 10.6813 17.794 11.0453 17.794H18.9544C19.3184 17.794 19.6135 17.499 19.6135 17.1349C19.6135 16.7709 19.3184 16.4759 18.9544 16.4759ZM13.0226 19.7713H17.3066C17.6707 19.7713 17.9657 20.0664 17.9657 20.4304C17.9657 20.7944 17.6707 21.0895 17.3066 21.0895H13.0226C12.6585 21.0895 12.3635 20.7944 12.3635 20.4304C12.3635 20.0664 12.6585 19.7713 13.0226 19.7713Z" fill="black"/>
</svg>
