<svg width="34" height="34" viewBox="0 0 34 34" fill="none" xmlns="http://www.w3.org/2000/svg">
<path d="M17.0001 17.3864C18.3374 17.3864 19.6446 16.9898 20.7565 16.2469C21.8684 15.5039 22.7351 14.448 23.2468 13.2125C23.7586 11.977 23.8925 10.6175 23.6316 9.30594C23.3707 7.99436 22.7267 6.7896 21.7811 5.84401C20.8355 4.89841 19.6308 4.25446 18.3192 3.99357C17.0076 3.73268 15.6481 3.86658 14.4127 4.37833C13.1772 4.89008 12.1212 5.7567 11.3783 6.8686C10.6353 7.9805 10.2388 9.28774 10.2388 10.625C10.2388 12.4182 10.9511 14.138 12.2191 15.406C13.4871 16.674 15.2069 17.3864 17.0001 17.3864ZM17.0001 5.79547C17.9553 5.79547 18.8891 6.07872 19.6833 6.60939C20.4775 7.14007 21.0965 7.89434 21.4621 8.77683C21.8276 9.65931 21.9232 10.6304 21.7369 11.5672C21.5505 12.5041 21.0906 13.3646 20.4151 14.04C19.7397 14.7154 18.8792 15.1754 17.9423 15.3618C17.0055 15.5481 16.0344 15.4525 15.1519 15.0869C14.2695 14.7214 13.5152 14.1024 12.9845 13.3082C12.4538 12.514 12.1706 11.5802 12.1706 10.625C12.1706 9.34414 12.6794 8.11573 13.5851 7.21001C14.4908 6.30429 15.7193 5.79547 17.0001 5.79547Z" fill="black"/>
<path d="M19.8978 19.3182H14.1024C11.7968 19.3182 9.58564 20.2341 7.95535 21.8644C6.32507 23.4946 5.40918 25.7058 5.40918 28.0114C5.40918 28.7799 5.71448 29.5169 6.2579 30.0604C6.80133 30.6038 7.53838 30.9091 8.30691 30.9091H25.6933C26.4618 30.9091 27.1988 30.6038 27.7423 30.0604C28.2857 29.5169 28.591 28.7799 28.591 28.0114C28.591 25.7058 27.6751 23.4946 26.0448 21.8644C24.4145 20.2341 22.2034 19.3182 19.8978 19.3182ZM25.6933 28.9773H8.30691C8.05073 28.9773 7.80505 28.8755 7.62391 28.6944C7.44276 28.5132 7.341 28.2675 7.341 28.0114C7.341 26.2181 8.05335 24.4984 9.32136 23.2304C10.5894 21.9624 12.3091 21.25 14.1024 21.25H19.8978C21.691 21.25 23.4108 21.9624 24.6788 23.2304C25.9468 24.4984 26.6592 26.2181 26.6592 28.0114C26.6592 28.2675 26.5574 28.5132 26.3763 28.6944C26.1951 28.8755 25.9494 28.9773 25.6933 28.9773Z" fill="black"/>
</svg>
