<svg width="56" height="56" viewBox="0 0 56 56" fill="none" xmlns="http://www.w3.org/2000/svg">
<path d="M46.9094 23.5945H45.004L41.6876 14.8567C41.0767 13.0504 39.404 11.8462 37.5422 11.8462H35.0113C34.4004 10.1427 32.8004 8.90918 30.9094 8.90918H25.0913C23.2004 8.90918 21.6004 10.1427 20.9894 11.8462H18.4585C16.5967 11.8462 14.924 13.0504 14.3422 14.798L10.9967 23.5945H9.09126C8.29126 23.5945 7.63672 24.2553 7.63672 25.063C7.63672 25.8707 8.29126 26.5316 9.09126 26.5316H9.36763L12.9749 43.6693C13.4258 45.6812 15.1858 47.091 17.2222 47.091H38.7785C40.8149 47.091 42.5749 45.6812 43.0404 43.6546L46.6331 26.5316H46.9094C47.7094 26.5316 48.364 25.8707 48.364 25.063C48.364 24.2553 47.7094 23.5945 46.9094 23.5945ZM22.1822 39.7483C22.1822 40.556 21.5276 41.2169 20.7276 41.2169C19.9276 41.2169 19.2731 40.556 19.2731 39.7483V30.9372C19.2731 30.1295 19.9276 29.4686 20.7276 29.4686C21.5276 29.4686 22.1822 30.1295 22.1822 30.9372V39.7483ZM29.4549 39.7483C29.4549 40.556 28.8004 41.2169 28.0004 41.2169C27.2004 41.2169 26.5458 40.556 26.5458 39.7483V30.9372C26.5458 30.1295 27.2004 29.4686 28.0004 29.4686C28.8004 29.4686 29.4549 30.1295 29.4549 30.9372V39.7483ZM36.7276 39.7483C36.7276 40.556 36.0731 41.2169 35.2731 41.2169C34.4731 41.2169 33.8185 40.556 33.8185 39.7483V30.9372C33.8185 30.1295 34.4731 29.4686 35.2731 29.4686C36.0731 29.4686 36.7276 30.1295 36.7276 30.9372V39.7483ZM14.1094 23.5945L17.0767 15.7966C17.2804 15.1945 17.8331 14.7833 18.4585 14.7833H20.9894C21.6004 16.4868 23.2004 17.7204 25.0913 17.7204H30.9094C32.8004 17.7204 34.4004 16.4868 35.0113 14.7833H37.5422C38.1676 14.7833 38.7204 15.1945 38.9531 15.8553L41.8913 23.5945H14.1094Z" fill="#012A6C"/>
</svg>
