<svg width="20" height="20" viewBox="0 0 20 20" fill="none" xmlns="http://www.w3.org/2000/svg">
<path d="M17.9526 9.20414C18.206 9.55941 18.3327 9.73704 18.3327 9.99999C18.3327 10.2629 18.206 10.4406 17.9527 10.7958C16.8143 12.3921 13.907 15.8333 9.99935 15.8333C6.09167 15.8333 3.18443 12.3921 2.04605 10.7958C1.79269 10.4406 1.66602 10.2629 1.66602 9.99999C1.66602 9.73704 1.79269 9.55941 2.04605 9.20414C3.18443 7.60786 6.09166 4.16666 9.99935 4.16666C13.907 4.16666 16.8143 7.60786 17.9526 9.20414Z" stroke="#14181F" stroke-width="1.5"/>
<path d="M12.5 10C12.5 8.61929 11.3807 7.5 10 7.5C8.61929 7.5 7.5 8.61929 7.5 10C7.5 11.3807 8.61929 12.5 10 12.5C11.3807 12.5 12.5 11.3807 12.5 10Z" stroke="#14181F" stroke-width="1.5"/>
</svg>
