<svg width="22" height="22" viewBox="0 0 22 22" fill="none" xmlns="http://www.w3.org/2000/svg">
<path d="M12.8313 11.0014L18.4162 5.42943C18.6608 5.18485 18.7982 4.85314 18.7982 4.50726C18.7982 4.16138 18.6608 3.82967 18.4162 3.5851C18.1716 3.34052 17.8399 3.20312 17.4941 3.20312C17.1482 3.20312 16.8165 3.34052 16.5719 3.5851L10.9999 9.17004L5.42798 3.5851C5.18341 3.34052 4.8517 3.20312 4.50582 3.20312C4.15994 3.20313 3.82823 3.34052 3.58365 3.5851C3.33908 3.82967 3.20168 4.16138 3.20168 4.50726C3.20168 4.85314 3.33908 5.18485 3.58365 5.42943L9.16859 11.0014L3.58365 16.5733C3.46192 16.6941 3.36529 16.8377 3.29935 16.996C3.23341 17.1543 3.19946 17.324 3.19946 17.4955C3.19946 17.667 3.23341 17.8367 3.29935 17.995C3.36529 18.1533 3.46192 18.2969 3.58365 18.4177C3.7044 18.5394 3.84805 18.636 4.00632 18.702C4.16459 18.7679 4.33436 18.8018 4.50582 18.8018C4.67728 18.8018 4.84704 18.7679 5.00531 18.702C5.16359 18.636 5.30724 18.5394 5.42798 18.4177L10.9999 12.8327L16.5719 18.4177C16.6926 18.5394 16.8363 18.636 16.9946 18.702C17.1528 18.7679 17.3226 18.8018 17.4941 18.8018C17.6655 18.8018 17.8353 18.7679 17.9935 18.702C18.1518 18.636 18.2955 18.5394 18.4162 18.4177C18.538 18.2969 18.6346 18.1533 18.7005 17.995C18.7665 17.8367 18.8004 17.667 18.8004 17.4955C18.8004 17.324 18.7665 17.1543 18.7005 16.996C18.6346 16.8377 18.538 16.6941 18.4162 16.5733L12.8313 11.0014Z" fill="#D92D20"/>
</svg>
