<svg width="56" height="56" viewBox="0 0 56 56" fill="none" xmlns="http://www.w3.org/2000/svg">
<path fill-rule="evenodd" clip-rule="evenodd" d="M30.545 7.63647C30.6024 7.63647 30.6593 7.64034 30.7154 7.64794L44.5425 21.5564C44.5442 21.583 44.545 21.6097 44.545 21.6365V42.0001C44.545 45.5146 41.6959 48.3637 38.1814 48.3637H17.8177C14.3032 48.3637 11.4541 45.5146 11.4541 42.0001V14.0001C11.4541 10.4856 14.3032 7.63647 17.8177 7.63647H30.545ZM35.6359 20.3637C33.5271 20.3637 31.8177 18.6543 31.8177 16.5456V11.9818L40.1997 20.3637H35.6359ZM20.3632 25.4547H35.6359C36.3388 25.4547 36.9086 26.0245 36.9086 26.7274C36.9086 27.4303 36.3388 28.0001 35.6359 28.0001H20.3632C19.6603 28.0001 19.0905 27.4303 19.0905 26.7274C19.0905 26.0245 19.6603 25.4547 20.3632 25.4547ZM35.6359 31.8183H20.3632C19.6603 31.8183 19.0905 32.3881 19.0905 33.091C19.0905 33.7939 19.6603 34.3637 20.3632 34.3637H35.6359C36.3388 34.3637 36.9086 33.7939 36.9086 33.091C36.9086 32.3881 36.3388 31.8183 35.6359 31.8183ZM24.1814 38.1819H32.4541C33.157 38.1819 33.7268 38.7517 33.7268 39.4547C33.7268 40.1576 33.157 40.7274 32.4541 40.7274H24.1814C23.4785 40.7274 22.9086 40.1576 22.9086 39.4547C22.9086 38.7517 23.4785 38.1819 24.1814 38.1819Z" fill="#012A6C"/>
</svg>
