<svg width="17" height="16" viewBox="0 0 17 16" fill="none" xmlns="http://www.w3.org/2000/svg">
<path d="M8.66661 14.6668C12.3485 14.6668 15.3333 11.6821 15.3333 8.00016C15.3333 4.31826 12.3485 1.3335 8.66661 1.3335C4.98471 1.3335 1.99994 4.31826 1.99994 8.00016C1.99994 11.6821 4.98471 14.6668 8.66661 14.6668Z" stroke="#DB6E00" stroke-width="1.5"/>
<path d="M8.67212 7.00545C8.11983 7.00545 7.67212 7.45317 7.67212 8.00545C7.67212 8.55774 8.11983 9.00545 8.67212 9.00545C9.2244 9.00545 9.67212 8.55774 9.67212 8.00545C9.67212 7.45317 9.2244 7.00545 8.67212 7.00545ZM8.67212 7.00545V4.66602M10.6767 10.0132L9.37764 8.71414" stroke="#DB6E00" stroke-width="1.5" stroke-linecap="round" stroke-linejoin="round"/>
</svg>
