<svg width="34" height="34" viewBox="0 0 34 34" fill="none" xmlns="http://www.w3.org/2000/svg">
<path d="M16.9996 17.3863C18.3369 17.3863 19.6442 16.9897 20.7561 16.2468C21.868 15.5038 22.7346 14.4478 23.2463 13.2124C23.7581 11.9769 23.892 10.6174 23.6311 9.30582C23.3702 7.99424 22.7262 6.78948 21.7807 5.84389C20.8351 4.89829 19.6303 4.25433 18.3187 3.99345C17.0071 3.73256 15.6477 3.86645 14.4122 4.37821C13.1767 4.88996 12.1207 5.75658 11.3778 6.86848C10.6348 7.98038 10.2383 9.28762 10.2383 10.6249C10.2383 12.4181 10.9506 14.1379 12.2186 15.4059C13.4866 16.6739 15.2064 17.3863 16.9996 17.3863ZM16.9996 5.79535C17.9548 5.79535 18.8886 6.07859 19.6828 6.60927C20.477 7.13995 21.096 7.89422 21.4616 8.7767C21.8271 9.65919 21.9227 10.6302 21.7364 11.5671C21.55 12.5039 21.0901 13.3645 20.4146 14.0399C19.7392 14.7153 18.8787 15.1753 17.9418 15.3616C17.005 15.548 16.0339 15.4523 15.1515 15.0868C14.269 14.7213 13.5147 14.1023 12.984 13.308C12.4533 12.5138 12.1701 11.5801 12.1701 10.6249C12.1701 9.34402 12.6789 8.1156 13.5846 7.20989C14.4904 6.30417 15.7188 5.79535 16.9996 5.79535Z" fill="#FCA0A6"/>
<path d="M19.8978 19.3181H14.1024C11.7968 19.3181 9.58564 20.234 7.95535 21.8643C6.32507 23.4946 5.40918 25.7057 5.40918 28.0113C5.40918 28.7798 5.71448 29.5169 6.2579 30.0603C6.80133 30.6037 7.53838 30.909 8.30691 30.909H25.6933C26.4618 30.909 27.1988 30.6037 27.7423 30.0603C28.2857 29.5169 28.591 28.7798 28.591 28.0113C28.591 25.7057 27.6751 23.4946 26.0448 21.8643C24.4145 20.234 22.2034 19.3181 19.8978 19.3181ZM25.6933 28.9772H8.30691C8.05073 28.9772 7.80505 28.8754 7.62391 28.6943C7.44276 28.5132 7.341 28.2675 7.341 28.0113C7.341 26.2181 8.05335 24.4983 9.32136 23.2303C10.5894 21.9623 12.3091 21.2499 14.1024 21.2499H19.8978C21.691 21.2499 23.4108 21.9623 24.6788 23.2303C25.9468 24.4983 26.6592 26.2181 26.6592 28.0113C26.6592 28.2675 26.5574 28.5132 26.3763 28.6943C26.1951 28.8754 25.9494 28.9772 25.6933 28.9772Z" fill="#FCA0A6"/>
</svg>
