<svg width="34" height="34" viewBox="0 0 34 34" fill="none" xmlns="http://www.w3.org/2000/svg">
<path d="M17 17.386C18.3373 17.386 19.6445 16.9895 20.7564 16.2465C21.8683 15.5036 22.7349 14.4476 23.2467 13.2121C23.7584 11.9766 23.8923 10.6171 23.6315 9.30557C23.3706 7.994 22.7266 6.78924 21.781 5.84364C20.8354 4.89805 19.6307 4.25409 18.3191 3.9932C17.0075 3.73231 15.648 3.86621 14.4125 4.37796C13.1771 4.88971 12.1211 5.75633 11.3781 6.86824C10.6352 7.98014 10.2386 9.28738 10.2386 10.6246C10.2386 12.4179 10.951 14.1377 12.219 15.4057C13.487 16.6737 15.2068 17.386 17 17.386ZM17 5.7951C17.9552 5.7951 18.8889 6.07835 19.6832 6.60903C20.4774 7.1397 21.0964 7.89398 21.4619 8.77646C21.8275 9.65894 21.9231 10.63 21.7368 11.5668C21.5504 12.5037 21.0904 13.3642 20.415 14.0397C19.7396 14.7151 18.879 15.175 17.9422 15.3614C17.0054 15.5477 16.0343 15.4521 15.1518 15.0866C14.2693 14.721 13.5151 14.102 12.9844 13.3078C12.4537 12.5136 12.1705 11.5798 12.1705 10.6246C12.1705 9.34377 12.6793 8.11536 13.585 7.20964C14.4907 6.30393 15.7191 5.7951 17 5.7951Z" fill="black"/>
<path d="M19.8978 19.3184H14.1023C11.7967 19.3184 9.58558 20.2342 7.95529 21.8645C6.325 23.4948 5.40912 25.706 5.40912 28.0115C5.40912 28.7801 5.71441 29.5171 6.25784 30.0605C6.80127 30.604 7.53832 30.9093 8.30685 30.9093H25.6932C26.4617 30.9093 27.1988 30.604 27.7422 30.0605C28.2856 29.5171 28.5909 28.7801 28.5909 28.0115C28.5909 25.706 27.6751 23.4948 26.0448 21.8645C24.4145 20.2342 22.2033 19.3184 19.8978 19.3184ZM25.6932 28.9774H8.30685C8.05067 28.9774 7.80499 28.8757 7.62385 28.6945C7.4427 28.5134 7.34094 28.2677 7.34094 28.0115C7.34094 26.2183 8.05329 24.4985 9.3213 23.2305C10.5893 21.9625 12.3091 21.2502 14.1023 21.2502H19.8978C21.691 21.2502 23.4108 21.9625 24.6788 23.2305C25.9468 24.4985 26.6591 26.2183 26.6591 28.0115C26.6591 28.2677 26.5574 28.5134 26.3762 28.6945C26.1951 28.8757 25.9494 28.9774 25.6932 28.9774Z" fill="black"/>
</svg>
