<svg width="56" height="56" viewBox="0 0 56 56" fill="none" xmlns="http://www.w3.org/2000/svg">
<path d="M46.229 14.6801C46.0217 14.4728 45.749 14.3637 45.4545 14.3637H37.8181V10.0001C37.8181 9.40009 37.3272 8.90918 36.7272 8.90918H10.5454C9.94537 8.90918 9.45446 9.40009 9.45446 10.0001V19.8183H6.18173C5.58173 19.8183 5.09082 20.3092 5.09082 20.9092V43.8183C5.09082 45.6183 6.56355 47.091 8.36355 47.091H45.4545C48.4654 47.091 50.909 44.6474 50.909 41.6364V19.8183C50.909 19.5237 50.789 19.251 50.5926 19.0437L46.229 14.6801ZM28.6545 39.1055C29.0799 39.531 29.0799 40.2183 28.6545 40.6437C28.4363 40.8619 28.1635 40.9601 27.8799 40.9601C27.5963 40.9601 27.3235 40.851 27.1054 40.6437L23.6363 37.1746L20.1672 40.6437C19.949 40.8619 19.6763 40.9601 19.3926 40.9601C19.109 40.9601 18.8363 40.851 18.6181 40.6437C18.1926 40.2183 18.1926 39.531 18.6181 39.1055L22.0981 35.6365L18.629 32.1674C18.2035 31.7419 18.2035 31.0546 18.629 30.6292C19.0545 30.2037 19.7417 30.2037 20.1672 30.6292L23.6363 34.0983L27.1054 30.6292C27.5308 30.2037 28.2181 30.2037 28.6435 30.6292C29.069 31.0546 29.069 31.7419 28.6435 32.1674L25.1745 35.6365L28.6545 39.1055ZM35.6363 24.1819H26.2654L22.2181 20.1346C22.0108 19.9274 21.7381 19.8183 21.4435 19.8183H11.6363V11.091H35.6363V24.1819ZM48.7272 41.6364C48.7272 43.4364 47.2545 44.9092 45.4545 44.9092C43.6545 44.9092 42.1817 43.4364 42.1817 41.6364V25.2728C42.1817 24.6728 41.6908 24.1819 41.0908 24.1819H37.8181V16.5455H45.0072L48.7272 20.2655V41.6364Z" fill="#012A6C"/>
<path d="M16.4725 16.0728H32.1816C32.7216 16.0728 33.1635 15.6309 33.1635 15.0909C33.1635 14.5509 32.7216 14.1091 32.1816 14.1091H16.4725C15.9325 14.1091 15.4907 14.5509 15.4907 15.0909C15.4907 15.6309 15.9325 16.0728 16.4725 16.0728Z" fill="black"/>
<path d="M16.4725 19.0183H32.1816C32.7216 19.0183 33.1635 18.5765 33.1635 18.0365C33.1635 17.4965 32.7216 17.0547 32.1816 17.0547H16.4725C15.9325 17.0547 15.4907 17.4965 15.4907 18.0365C15.4907 18.5765 15.9325 19.0183 16.4725 19.0183Z" fill="black"/>
</svg>
