<svg width="21" height="20" viewBox="0 0 21 20" fill="none" xmlns="http://www.w3.org/2000/svg">
<path d="M18.4526 9.20416C18.706 9.55943 18.8327 9.73706 18.8327 10C18.8327 10.263 18.706 10.4406 18.4527 10.7959C17.3143 12.3921 14.407 15.8333 10.4993 15.8333C6.59167 15.8333 3.68443 12.3921 2.54605 10.7959C2.29269 10.4406 2.16602 10.263 2.16602 10C2.16602 9.73706 2.29269 9.55943 2.54605 9.20416C3.68443 7.60787 6.59166 4.16667 10.4993 4.16667C14.407 4.16667 17.3143 7.60787 18.4526 9.20416Z" stroke="#14181F" stroke-width="1.5"/>
<path d="M13 10C13 8.61929 11.8807 7.5 10.5 7.5C9.11929 7.5 8 8.61929 8 10C8 11.3807 9.11929 12.5 10.5 12.5C11.8807 12.5 13 11.3807 13 10Z" stroke="#14181F" stroke-width="1.5"/>
</svg>
